<svg xmlns="http://www.w3.org/2000/svg" xmlns:xlink="http://www.w3.org/1999/xlink" width="2073" height="1459" fill="none"><style><![CDATA[.B{fill:#ff928e}.C{fill:#feb3b1}.D{fill:#09005d}.E{fill:#fbda73}.F{fill:#7d97f4}.G{fill:#4042e2}.H{fill:#020039}.I{opacity:.61}.J{fill:#175fa2}.K{fill:#4f52ff}.L{fill:#bdd0fb}.M{fill:#91b3fa}]]></style><g clip-path="url(#O)"><path d="M2031.61 974.72c-33.4-38.38-83.04-60.93-119.23-96.96-58.46-58.18-74.74-144.22-72.4-224.58s20.45-159.98 19.13-240.37-26.07-165.99-91.97-216.51c-70.89-54.34-174.12-55.32-260.16-26.84s-159.83 81.99-235.04 130.83c-39.37 25.56-86.24 51.16-132.13 38.81-45.26-12.17-70.8-55.97-95.91-93.72-29.31-44.08-67.67-86.08-119.78-102.54-102.81-32.47-115.71 4.71-120.62 34.21-7.36 44.2-18.38 76.17-55.68 90.3-37.31 14.12-79.99 7.89-117.58-5.52S558.12 228.25 521 213.68c-59.32-23.29-144.87-76.91-206.3-59.2S189.25 247.6 174.05 306.8c-25.41 99.01 84.84 222.1 46.62 317.33-26.36 65.69-100.29 100.68-149.93 152.85-95.66 100.55-89.44 264.67-9.78 377.09 79.66 112.41 217.62 177.74 357.66 203.93s284.33 17.92 426.91 11.53c224.05-10.04 448.47-15.15 672.66-8.73 92.71 2.66 186.42 7.21 277.43-9.81 91-17.02 180.77-58.48 234.09-130.51 53.34-72.03 60.97-177.89 1.9-245.76z" fill="#b9e0bf"/><g fill="#30d3a1"><path d="M349.63 355.63c-.87-4.91-7.96-4.79-8.69.14-3.67 24.74-10.67 56.33-23.77 76.94-24.32 38.26-68.49 177.6 52.79 247.06 121.28 69.47 151.1 106.24 150.2 239.63-.82 121.92 6.52 382.1 7.78 425.96.049 1.7.761 3.31 1.982 4.5a6.56 6.56 0 0 0 4.558 1.84c3.61 0 6.53-2.91 6.55-6.52.16-57.06.96-471.81-9.44-572.31-16.49-159.24-150.77-240.82-181.96-417.24z"/><path d="M351.7 461.04c-1.24 3.89-2.18 8.24-2.82 12.46-.39 2.12-.58 4.27-.8 6.42-.28 2.14-.29 4.3-.39 6.45-.16 8.6.26 17.23 2.03 25.64 3.32 16.85 10.73 32.67 20.67 46.66 1.26 1.74 2.41 3.56 3.76 5.24l8.4 9.84 4.51 4.73c6.11 6.23 12.57 12.16 19.2 17.98 13.25 11.63 27.15 22.82 40.26 35.12 13.15 12.22 25.44 25.64 35.79 40.51 5.106 7.473 9.781 15.233 14 23.24l3 6.08c1.02 2.02 1.97 4.06 2.85 6.15l2.7 6.21 2.43 6.31c1.7 4.18 2.98 8.5 4.46 12.76 1.35 4.29 2.56 8.63 3.78 12.96 1.04 4.37 2.19 8.72 3.08 13.11.83 4.41 1.86 8.78 2.51 13.22 3 17.67 4.69 35.51 5.37 53.35a2.39 2.39 0 0 1-.146.918c-.109.293-.274.562-.487.792s-.469.414-.753.545a2.39 2.39 0 0 1-.904.215c-1.28.05-2.37-.94-2.46-2.21-2.63-35.2-8.35-70.41-21.27-103.01l-2.45-6.08-2.71-5.97c-.87-2-1.83-3.97-2.84-5.9l-2.98-5.82c-4.19-7.65-8.8-15.05-13.83-22.17-5.13-7.04-10.6-13.84-16.43-20.33-5.82-6.5-12.09-12.64-18.52-18.61-12.88-11.95-26.74-22.98-40.25-34.71-6.76-5.86-13.42-11.91-19.79-18.33l-4.71-4.89-4.43-5.24-4.42-5.24c-1.42-1.79-2.65-3.74-3.99-5.6-10.51-14.96-18.2-32.24-21.03-50.43l-.93-6.83c-.25-2.28-.3-4.58-.45-6.87-.19-2.29-.14-4.58-.08-6.87.03-2.29.1-4.58.38-6.86.23-2.28.38-4.56.8-6.81.35-2.26.69-4.52 1.23-6.75.93-4.51 2.19-8.81 4.01-13.26.53-1.29 2-1.91 3.28-1.38 1.22.5 1.84 1.85 1.45 3.09l-.08.17zm-46.24 275.13c-2.2-4.83-9.27-4.22-10.65.9-12.49 46.43-38.26 185.03 75.67 250.62 138.06 79.48 141.39 43.53 158.6 183.47 14.82 120.45 19.87 193.69 20.99 211.76.15 2.48 2.21 4.4 4.7 4.4 2.66 0 4.79-2.19 4.7-4.85-1.3-37.92-10.79-288.52-37.89-411.1-48.2-218.02-161.08-114.21-216.12-235.2z"/><path d="M308.2 761.56c1.34 7.8 4.08 15.59 7.58 22.79 3.61 7.19 7.8 14.06 12.71 20.4 9.8 12.7 22.06 23.33 35.44 32.19 6.62 4.61 13.77 8.22 20.92 12.16l11.05 5.89c3.65 2.03 7.22 4.22 10.83 6.32 14.27 8.7 28.03 18.37 40.68 29.43 12.51 11.2 23.98 23.59 33.98 37.09l7.13 10.38c1.24 1.69 2.22 3.56 3.29 5.36l3.17 5.43 3.16 5.43 2.77 5.64 5.44 11.32c3.01 7.8 6.51 15.43 8.79 23.47 1.25 3.98 2.57 7.94 3.66 11.96l4.3 18.24 1.04 6.15 2.05 12.3c.75 4.09.95 8.25 1.41 12.37l1.2 12.38c.021.21-.001.43-.063.63a1.71 1.71 0 0 1-.3.56c-.135.16-.302.3-.49.4a1.62 1.62 0 0 1-.607.18c-.86.08-1.63-.52-1.76-1.36l-.02-.11-3.76-24.33-2.49-12.03-1.26-6.01-4.91-17.72c-1.21-3.9-2.69-7.7-3.97-11.57-2.4-7.81-5.99-15.14-9.08-22.66-1.74-3.67-3.7-7.24-5.53-10.86l-2.81-5.41-6.38-10.37c-1.08-1.71-2.06-3.5-3.3-5.1l-7.11-9.86c-9.93-12.8-21.01-24.68-33.24-35.34-12.38-10.48-25.64-19.92-39.58-28.31l-10.57-6.12-10.81-5.72c-7.28-4.04-14.83-8.01-21.72-12.91-13.93-9.56-26.56-21.33-36.23-35.33-4.73-7.06-8.84-14.54-11.85-22.46-1.49-3.97-2.78-8-3.74-12.12-1.04-4.11-1.62-8.26-1.77-12.62-.03-.76.57-1.4 1.33-1.43.7-.02 1.3.48 1.41 1.15l.01.13zm228.76 625.77c2.94 0 5.18-2.63 4.69-5.53-4.87-28.83-33.44-160.68-148.46-161.73-101.9-.93-163.74 49.98-185.29 71.49-3.85 3.84-2.14 10.43 3.11 11.88 13.92 3.82 37.07 13.14 51.93 34.71 22.41 32.53 80.5 27.42 116.69-17.29 35.86-44.29 125.18-70.82 152.66 62.64.46 2.22 2.4 3.83 4.67 3.83z"/><path d="M255.36 1276.65c7.83-6.72 16.34-12.41 25.18-17.62 4.43-2.59 8.94-5.04 13.55-7.29 4.59-2.31 9.27-4.43 14.05-6.35 9.5-3.96 19.34-7.12 29.35-9.67 10.04-2.45 20.29-4.08 30.62-4.94 10.32-.88 20.75-.77 31.07.39 10.31 1.13 20.54 3.19 30.38 6.47l3.7 1.18 3.61 1.43c2.4.98 4.83 1.86 7.18 2.91 4.64 2.27 9.37 4.35 13.73 7.11 8.99 5.02 17.2 11.27 25 17.83.144.12.263.27.35.44a1.41 1.41 0 0 1 .155.53 1.45 1.45 0 0 1-.063.56c-.058.18-.15.35-.272.49-.47.56-1.29.67-1.89.27l-.07-.05c-8.36-5.58-16.67-11.18-25.73-15.36-4.4-2.33-9.09-4.02-13.63-5.99-2.31-.89-4.69-1.61-7.02-2.42l-3.51-1.18-3.59-.94c-9.48-2.81-19.29-4.26-29.1-5.12-2.46-.14-4.91-.46-7.38-.46l-7.39-.12c-4.93.17-9.86.3-14.78.81-19.69 1.73-39.01 6.84-57.69 13.63-18.776 6.91-36.878 15.53-54.08 25.75l-.06.04c-.68.4-1.56.18-1.97-.5-.36-.62-.22-1.39.3-1.83zM764.58 58.52c-.25-5.67-7.76-7.43-10.55-2.49-13.47 23.85-43.77 64.53-104.42 93.97-90.97 44.16-254.23 135.5-156.88 335.05 101.21 207.45 65.28 352.35 72.26 424.9 6.46 67.18 13.26 413.34 14.23 464.16.034 1.67.72 3.25 1.912 4.42a6.39 6.39 0 0 0 4.458 1.81c3.58 0 6.46-2.95 6.37-6.53l-11.61-519.72c-.2-68.84-17.22-304.41 44.31-390.32 59.53-83.11 149.39-189.74 139.92-405.25z"/><path d="M729.77 119.69c-6.33 8.89-13.17 17.33-20.29 25.56-7.06 8.28-14.53 16.2-22.12 24l-5.76 5.79-5.88 5.67c-3.9 3.8-7.91 7.49-11.95 11.15-8.11 7.27-16.42 14.34-24.92 21.18-4.27 3.4-8.65 6.65-12.97 9.98-4.36 3.29-8.84 6.41-13.25 9.62-8.83 6.2-17.39 12.38-25.47 19.27-16.2 13.62-30.37 29.51-40.99 47.6-5.3 9.04-9.77 18.58-13.19 28.53-3.44 9.94-5.89 20.22-7.69 30.64-1.87 10.42-2.59 21.05-2.99 31.67l-.12 7.99c-.04 2.66.11 5.33.16 8 .06 5.34.49 10.67.8 16.01 3.35 42.74 13.79 84.88 26.38 126.18.18.6-.15 1.23-.75 1.41-.57.18-1.18-.13-1.39-.68-7.58-20.31-14.19-41-19.73-62.02s-9.89-42.43-12.14-64.2c-2.24-21.74-2.48-43.87.7-65.78 1.61-10.94 4.13-21.78 7.61-32.34 3.48-10.57 8.09-20.78 13.6-30.47 11.01-19.45 26.15-36.26 42.94-50.56 8.37-7.17 17.31-13.76 26.2-19.96l13.1-9.32 12.84-9.69 12.66-9.94 12.42-10.25c8.21-6.92 16.39-13.91 24.28-21.21 8.02-7.17 15.8-14.61 23.52-22.13 7.66-7.57 15.32-15.2 22.63-23.11l.02-.02c.42-.46 1.14-.49 1.6-.07a1.16 1.16 0 0 1 .347.724c.025.275-.048.55-.207.776z"/></g><path d="M909.06 785.81H783.42c-7.23 0-13.14-5.78-13.28-13.01l-11.32-551.28c-.16-7.82 6.44-14.09 14.24-13.52l136.95 9.88c3.349.242 6.482 1.744 8.769 4.202a13.29 13.29 0 0 1 3.561 9.048v541.4a13.29 13.29 0 0 1-13.28 13.28z" class="J"/><path d="M789.7 432.7l2.72 65.3c.125 2.96 1.378 5.76 3.501 7.826s4.957 3.241 7.919 3.284l87.75 1.23a11.6 11.6 0 0 0 4.485-.836c1.424-.573 2.721-1.423 3.814-2.501a11.62 11.62 0 0 0 2.554-3.78 11.6 11.6 0 0 0 .897-4.473v-65.26c0-6.34-5.09-11.5-11.43-11.59l-90.47-1.27c-6.66-.09-12.02 5.42-11.74 12.07zm102.21 87.56l-86.36-1.21c-6.65-.09-12.02 5.42-11.74 12.07l2.72 65.3a11.6 11.6 0 0 0 3.501 7.826c2.123 2.066 4.957 3.241 7.919 3.284l83.64 1.17a11.6 11.6 0 0 0 4.485-.836c1.424-.573 2.721-1.423 3.814-2.501a11.62 11.62 0 0 0 2.554-3.78 11.6 11.6 0 0 0 .897-4.473v-65.26c0-6.33-5.1-11.5-11.43-11.59zM903.34 302v-49.14a11.59 11.59 0 0 0-2.885-7.648c-1.859-2.114-4.423-3.48-7.215-3.842l-98.48-12.8c-7.13-.93-13.37 4.79-13.07 11.98l2.53 60.6a11.6 11.6 0 0 0 3.501 7.826c2.123 2.066 4.957 3.241 7.919 3.284l95.95 1.34c6.46.08 11.75-5.13 11.75-11.6zm-117.75 32.27l2.72 65.3c.125 2.96 1.378 5.76 3.501 7.826s4.957 3.241 7.919 3.284l91.85 1.29a11.6 11.6 0 0 0 4.485-.836c1.424-.573 2.721-1.423 3.814-2.501a11.62 11.62 0 0 0 2.554-3.78 11.6 11.6 0 0 0 .897-4.473v-65.26c0-6.34-5.09-11.5-11.43-11.59l-94.57-1.32c-6.65-.1-12.02 5.41-11.74 12.06zm12.32 295.29l1.98 47.51c.26 6.21 5.37 11.11 11.58 11.11h80.28c6.4 0 11.59-5.19 11.59-11.59v-46.36c0-6.34-5.09-11.5-11.43-11.59l-82.26-1.15a11.59 11.59 0 0 0-4.597.878 11.58 11.58 0 0 0-6.392 6.572 11.58 11.58 0 0 0-.751 4.62z" fill="#50d0b8"/><path d="M918.27 778.54l-117.19 45.28a13.28 13.28 0 0 1-17.08-7.35L574.77 306.32c-2.97-7.24.93-15.46 8.41-17.75l131.31-40.14c3.212-.981 6.677-.71 9.697.759a13.29 13.29 0 0 1 6.583 7.161l195.12 505.01c2.63 6.85-.77 14.54-7.62 17.18z" class="J"/><g fill="#f7817c"><path d="M678.698 488.122l26.07 59.93c2.45 5.64 8.89 8.38 14.65 6.24l82.29-30.48c6.06-2.25 9.12-9.02 6.79-15.05l-23.52-60.87c-2.28-5.91-8.89-8.89-14.84-6.69l-84.85 31.42c-6.23 2.32-9.25 9.4-6.59 15.5zm126.9 44.84l-81 30c-6.24 2.31-9.26 9.39-6.6 15.49l26.07 59.93c2.45 5.64 8.89 8.38 14.65 6.24l78.44-29.05c6.06-2.25 9.12-9.02 6.79-15.05l-23.52-60.87c-2.28-5.91-8.89-8.89-14.83-6.69zm-68-207.71l-17.71-45.84c-2.1-5.43-7.9-8.46-13.56-7.08l-96.48 23.55c-6.98 1.7-10.75 9.29-7.88 15.88l24.2 55.62c2.45 5.64 8.89 8.38 14.65 6.24l89.99-33.33c1.44-.533 2.76-1.347 3.882-2.394a11.59 11.59 0 0 0 2.658-3.706c.632-1.399.979-2.91 1.022-4.445s-.219-3.063-.772-4.495zm-98.21 72.54l26.07 59.93c2.45 5.64 8.89 8.38 14.65 6.24l86.14-31.9c6.06-2.25 9.12-9.02 6.79-15.05l-23.52-60.87c-2.28-5.91-8.89-8.89-14.84-6.69l-88.7 32.85c-6.22 2.3-9.24 9.38-6.59 15.49zM758.28 672.85l18.97 43.61c2.48 5.7 9.01 8.43 14.81 6.19l74.88-28.93c5.97-2.31 8.94-9.02 6.63-14.99l-16.71-43.25c-2.28-5.91-8.89-8.89-14.84-6.69l-77.15 28.57c-6.23 2.31-9.24 9.39-6.59 15.49z"/></g><path d="M925.59 765.52l-80.28 96.64a13.29 13.29 0 0 1-18.5 1.9L395.53 520.51c-6.12-4.87-6.72-13.95-1.3-19.6l95.11-99.03c4.83-5.02 12.71-5.47 18.07-1.02L923.86 746.8c5.64 4.7 6.42 13.07 1.73 18.72z" class="J"/><g fill="#fbbd5a"><path d="M577.7 631.7l51.97 39.63a11.59 11.59 0 0 0 8.256 2.308c2.946-.315 5.66-1.745 7.584-3.998l57.01-66.71c4.2-4.91 3.57-12.31-1.41-16.45l-50.2-41.7c-4.88-4.05-12.1-3.43-16.22 1.39l-58.78 68.78c-4.31 5.07-3.5 12.72 1.79 16.75zm132.67-22.67l-56.11 65.66a11.61 11.61 0 0 0-2.259 4.099c-.466 1.506-.621 3.091-.454 4.659a11.6 11.6 0 0 0 1.423 4.459c.773 1.374 1.817 2.576 3.07 3.533l51.97 39.63a11.59 11.59 0 0 0 8.256 2.308c2.946-.315 5.66-1.745 7.584-3.998l54.34-63.59c4.2-4.91 3.57-12.31-1.41-16.45l-50.2-41.7c-4.87-4.04-12.09-3.43-16.21 1.39zM549.78 460.77l-37.8-31.4c-4.48-3.72-11.03-3.54-15.29.42l-72.78 67.57c-5.27 4.89-4.86 13.35.86 17.71L473 551.86c2.356 1.796 5.311 2.622 8.256 2.308a11.59 11.59 0 0 0 7.584-3.998l62.35-72.95c4.19-4.91 3.56-12.31-1.41-16.45zm-50.41 111.2l51.97 39.63a11.59 11.59 0 0 0 8.256 2.308c2.946-.315 5.66-1.745 7.584-3.998l59.68-69.83c4.2-4.91 3.57-12.31-1.41-16.45l-50.2-41.7c-4.88-4.05-12.1-3.43-16.22 1.39l-61.45 71.9c-4.32 5.06-3.51 12.71 1.79 16.75z"/></g><path d="M734.37 751.18l37.81 28.84c4.94 3.77 11.97 2.97 15.94-1.81l51.3-61.75c4.09-4.92 3.41-12.23-1.51-16.32l-35.66-29.62c-4.88-4.05-12.1-3.43-16.22 1.39l-53.45 62.54c-4.31 5.04-3.5 12.69 1.79 16.73z" fill="url(#A)"/><g fill="#30d3a1"><path d="M1610.69 1357.88c-2.66-.47-4.68-2.63-4.95-5.31-2.95-28.8-16.8-188.09 27.1-272.66 48.39-93.21 126.44-179.94 88.31-402-21.6-125.8-8.04-194.39-1.17-218.17 1.04-3.6 5.96-4.01 7.55-.61 19.81 42.44 102.47 221.17 115.35 276.47 14.66 62.91 24.35 185.29-74.78 241.2-97.57 55.03-185.66 194.8-150.45 374.01.82 4.14-2.8 7.8-6.96 7.07zM1442.74 3.41c-1.48-3.62-6.77-3.03-7.32.85-8.68 60.87-32.45 279.12 55.24 378.27 102.47 115.85 177.01 142.62 153.07 335.94-23.69 191.28-87.59 530.48-60.12 631.65.52 1.91 2.07 3.35 4.02 3.69 3.22.57 6.13-2.01 5.94-5.27-1.73-29.84-7.55-158.94 12.52-276.57 22.86-134.04 121.65-467.81 75.7-728.22-43.06-244.04-202.01-249.51-239.05-340.34z"/><path d="M1483.72 108.13c8.66 6.72 16.8 13.97 24.7 21.51 7.92 7.51 15.54 15.35 22.92 23.39 7.43 8.01 14.46 16.38 21.44 24.8 3.47 4.23 6.75 8.6 10.13 12.89l9.8 13.15c12.72 17.8 24.54 36.26 35.18 55.4l4.02 7.16 3.81 7.28c2.48 4.88 5.16 9.66 7.45 14.64l7.08 14.83 6.54 15.07c8.32 20.26 15.77 40.9 21.7 62.01 1.57 5.25 2.72 10.61 4.1 15.91l1.99 7.97c.62 2.67 1.11 5.36 1.68 8.04l3.24 16.1 2.5 16.23c.93 5.4 1.42 10.85 1.98 16.29.51 5.45 1.25 10.87 1.56 16.33.57 10.93 1.31 21.84 1.07 32.77.31 21.86-1.67 43.65-4.36 65.25-.12.97-1.01 1.66-1.98 1.54-.45-.058-.86-.285-1.15-.637a1.78 1.78 0 0 1-.4-1.253v-.05c3.29-43.12 1.89-86.5-5.48-128.89l-2.85-15.87-3.51-15.74-1.81-7.85-2.12-7.78c-1.46-5.17-2.7-10.4-4.35-15.52-6.1-20.61-13.61-40.77-22-60.54-16.89-39.54-38.34-77.03-62.7-112.5l-9.25-13.23-9.58-13.01c-6.44-8.64-13.04-17.16-19.87-25.5-13.58-16.74-27.83-33.05-42.99-48.45l-.03-.03c-.45-.46-.44-1.19.01-1.64.42-.39 1.08-.42 1.53-.07zm148.36 1253.53c-2.9-.51-5.2-2.72-5.81-5.6-5.44-25.55-26.15-148.01 57.67-223.12 87.41-78.33 151.26-83.51 168.33-132.57 1.04-3 5.33-2.82 6.02.28 9.77 43.97 33.9 195.92-82.35 254.5-115.35 58.12-133.5 84.8-135.43 100.39-.51 4.07-4.39 6.83-8.43 6.12z"/><path d="M1846.23 1041.87c-3.92 16.16-11.01 31.33-19.92 45.41-4.47 7.04-9.47 13.76-15.01 20.05-5.5 6.32-11.5 12.25-17.99 17.61s-13.33 10.35-20.63 14.59c-7.31 4.23-14.93 7.9-22.77 11.03l-5.93 2.22-5.61 2.04c-1.87.64-3.69 1.4-5.51 2.16-1.82.77-3.67 1.46-5.43 2.34-7.2 3.21-14.08 7.08-20.62 11.4-26.43 17.11-46 43.62-56.96 73.5-11.27 29.9-15.19 62.49-15.31 94.95 0 .81-.66 1.47-1.47 1.47-.77 0-1.4-.6-1.47-1.36-.64-8.17-1.09-16.38-1.07-24.61.04-8.23.38-16.47 1.07-24.7.71-8.25 1.88-16.46 3.51-24.58 1.6-8.15 3.71-16.22 6.36-24.14 5.32-15.81 12.7-31.15 22.76-44.75 9.95-13.63 22.27-25.7 36.41-35.03 7.03-4.7 14.41-8.9 22.1-12.38 1.89-.95 3.86-1.7 5.79-2.54 1.94-.82 3.88-1.65 5.87-2.34l11.44-4.16c14.71-5.64 28.57-13.4 41.05-23.09 6.22-4.87 12.15-10.13 17.7-15.81 5.52-5.7 10.69-11.78 15.51-18.16 9.51-12.81 17.79-26.84 23.82-41.78l.03-.08a1.2 1.2 0 0 1 .64-.65c.3-.13.63-.13.92-.01.56.23.86.83.72 1.4z"/></g><path d="M648.168 710.982l822.032-285.01-8.63 771.278-835.872-186.5 22.47-299.768z" class="K"/><path d="M470.44 969.13s132.26 348.81 174.04 421.37c48.5 84.23 190.16 30.56 183.11-39.93S655.04 988.71 655.04 988.71l-184.6-19.58z" fill="#2550a9"/><path d="M1471.95 1214.28c44.6 0 80.76-177.46 80.76-396.37s-36.16-396.37-80.76-396.37-80.76 177.461-80.76 396.37 36.16 396.37 80.76 396.37z" fill="#292ab9"/><path d="M1478.08 1187.17c-7.3-7.42-23.2-36.06-36.83-110.12-13.18-71.57-20.43-164.4-20.43-261.38 0-96.99 7.26-189.82 20.43-261.38 13.63-74.06 29.53-102.7 36.83-110.12 7.3 7.42 23.2 36.06 36.83 110.12 13.18 71.57 20.43 164.39 20.43 261.38s-7.26 189.81-20.43 261.38c-13.63 74.06-29.53 102.7-36.83 110.12z" class="G"/><path d="M1581.6 812.72c0 67.35-36.28 121.94-108.09 121.94S1424.5 883 1418.5 800.5c9-77.5-11.81-106.5 60-106.5s103.1 51.37 103.1 118.72z" class="K"/><path d="M516.56 698.46c38.67-4.49 94.12-6.11 154.08 7.62-19.75 103.18-16.77 210.73 6.07 322.1H507.6c-26.96 0-49.95-19.58-54.16-46.22-8.43-53.38-18.73-143.1-7.74-215.16 5.52-36.16 34.53-64.12 70.86-68.34z" fill="#1a4399"/><path d="M1885.61 503.5c.32-.354.52-.798.57-1.271a2.25 2.25 0 0 0-.26-1.369l-13.44-24.4c6.3-11.38 10.82-23.85 13.22-37.02l25.83-10.38c.91-.36 1.48-1.26 1.43-2.24l-1.67-33.37c-.05-.98-.71-1.81-1.65-2.08l-26.73-7.75c-3.65-12.674-9.34-24.668-16.85-35.51l10.93-25.62c.18-.439.23-.925.13-1.39s-.35-.888-.7-1.21l-24.78-22.41c-.72-.66-1.78-.78-2.64-.31l-24.4 13.44c-11.38-6.3-23.85-10.82-37.02-13.22l-10.38-25.83c-.36-.91-1.26-1.48-2.24-1.43l-33.37 1.67c-.97.05-1.81.71-2.08 1.65l-7.75 26.73c-12.67 3.649-24.67 9.34-35.51 16.85l-25.62-10.93c-.44-.185-.92-.23-1.39-.128-.46.102-.88.346-1.2.698l-22.41 24.78c-.66.72-.78 1.78-.31 2.64l13.44 24.4c-6.3 11.38-10.82 23.85-13.22 37.02l-25.83 10.38c-.91.36-1.48 1.26-1.43 2.24l1.67 33.37c.05.98.71 1.81 1.65 2.08l26.73 7.75c3.65 12.674 9.34 24.668 16.85 35.51l-10.93 25.62c-.18.439-.23.925-.13 1.39s.35.888.7 1.21l24.78 22.41c.35.319.8.519 1.27.575s.95-.037 1.37-.265l24.4-13.44c11.38 6.3 23.85 10.82 37.02 13.22l10.38 25.83c.36.91 1.26 1.48 2.24 1.43l33.37-1.67c.98-.05 1.81-.71 2.08-1.65l7.75-26.73c12.67-3.649 24.67-9.34 35.51-16.85l25.62 10.93c.44.185.92.229 1.39.127s.89-.345 1.21-.697l22.4-24.78z" fill="#2b93af"/><path d="M1765.64 450.55c-14.15 0-27.27-9.16-31.62-23.37-5.34-17.42 4.49-35.95 21.92-41.29 4.15-1.284 8.51-1.733 12.83-1.319a32.84 32.84 0 0 1 12.35 3.729 32.89 32.89 0 0 1 10.01 8.141 32.87 32.87 0 0 1 6.09 11.369c5.34 17.43-4.49 35.95-21.92 41.29-3.21.98-6.46 1.45-9.66 1.45zm.01-59.35a26.29 26.29 0 0 0-7.73 1.17c-13.85 4.24-21.67 18.97-17.43 32.82 4.25 13.85 18.97 21.67 32.82 17.42 13.85-4.24 21.67-18.97 17.43-32.82-2.06-6.71-6.6-12.22-12.8-15.51-3.85-2.04-8.05-3.08-12.29-3.08zm-.69 109.86c-20.85 0-40.68-7.62-56.25-21.71-16.64-15.05-26.42-35.68-27.54-58.09a86.08 86.08 0 0 1-.11-4.25c0-44.41 34.96-81.6 79.8-83.85 46.26-2.28 85.78 33.43 88.1 79.69.3 5.99-.04 12-.99 17.85l-6.69-1.09c.67-4.11 1.01-8.31 1.01-12.52a72.83 72.83 0 0 0-.1-3.91c-2.13-42.53-38.49-75.45-80.99-73.26-41.22 2.06-73.36 36.26-73.36 77.09a72.83 72.83 0 0 0 .1 3.91c1.03 20.6 10.03 39.57 25.32 53.41 15.3 13.84 35.1 20.9 55.67 19.86 13.98-.7 27.49-5.17 39.05-12.91l3.77 5.63c-12.59 8.43-27.28 13.29-42.48 14.05-1.45.06-2.89.1-4.31.1z" class="L"/><path d="M1656.46 283.19l-8.59-13.03c3.01-6.64 4.99-13.8 5.74-21.26l13.96-6.94c.49-.24.77-.77.7-1.31l-2.42-18.56c-.07-.54-.48-.98-1.01-1.09l-15.28-3.14c-2.64-7.02-6.38-13.44-10.99-19.09l4.97-14.79c.17-.52 0-1.09-.43-1.42l-14.83-11.42c-.43-.33-1.03-.36-1.49-.05l-13.03 8.59c-6.64-3.01-13.8-4.99-21.26-5.74l-6.94-13.96c-.24-.49-.77-.77-1.31-.7l-18.56 2.42c-.54.07-.98.48-1.09 1.01l-3.14 15.28c-7.02 2.64-13.44 6.38-19.09 10.99l-14.79-4.97c-.52-.17-1.09 0-1.42.43l-11.42 14.83c-.33.43-.36 1.03-.05 1.49l8.59 13.03c-3.01 6.64-4.99 13.8-5.74 21.26l-13.96 6.94c-.49.24-.77.77-.7 1.31l2.42 18.56c.07.54.48.98 1.01 1.09l15.28 3.14c2.64 7.02 6.38 13.44 10.99 19.09l-4.97 14.79c-.17.52 0 1.09.43 1.42l14.83 11.42c.43.33 1.03.36 1.49.05l13.03-8.59c6.64 3.01 13.8 4.99 21.26 5.74l6.94 13.96c.24.49.77.77 1.31.7l18.56-2.42c.54-.07.98-.48 1.09-1.01l3.14-15.28c7.02-2.64 13.44-6.38 19.09-10.99l14.79 4.97c.52.17 1.09 0 1.42-.43l11.42-14.83c.33-.44.35-1.04.05-1.49z" fill="#2b93af"/><path d="M1585.56 261.98c-2.7 0-5.4-.55-7.95-1.66-4.91-2.12-8.69-6.03-10.65-11-.97-2.441-1.46-5.051-1.41-7.679.04-2.628.6-5.222 1.65-7.631 2.12-4.91 6.03-8.69 11-10.65 10.25-4.06 21.91.98 25.97 11.24s-.99 21.91-11.25 25.97a19.96 19.96 0 0 1-7.36 1.41zm-.01-33.25c-1.62 0-3.26.3-4.85.93-1.62.635-3.09 1.583-4.34 2.792s-2.25 2.652-2.94 4.248c-1.4 3.24-1.46 6.84-.16 10.13.63 1.618 1.58 3.094 2.79 4.342a13.09 13.09 0 0 0 4.25 2.928 13.13 13.13 0 0 0 5.05 1.097 13.14 13.14 0 0 0 5.08-.937c6.78-2.68 10.12-10.39 7.44-17.17-2.05-5.19-7.04-8.36-12.32-8.36z" class="L"/><g class="F"><path d="M1839.47 596.11c-.89 0-1.73-.53-2.09-1.4-.47-1.15.08-2.47 1.23-2.94l8.17-3.58c1.13-.52 2.47-.04 3 1.09s.04 2.47-1.09 3l-8.37 3.66a2.15 2.15 0 0 1-.85.17zm-74.16 14.2a193.9 193.9 0 0 1-18.07-1c-1.24-.13-2.14-1.24-2.02-2.48.13-1.24 1.21-2.11 2.48-2.02a185.41 185.41 0 0 0 17.63.97c.3.003.59.064.86.18a2.21 2.21 0 0 1 .73.496 2.39 2.39 0 0 1 .49.738c.11.275.16.569.16.866-.01 1.25-1.02 2.25-2.26 2.25zm28.97-1.94a2.26 2.26 0 0 1-1.48-.553 2.22 2.22 0 0 1-.75-1.387c-.04-.294-.03-.594.05-.882a2.16 2.16 0 0 1 .38-.796c.18-.238.4-.439.66-.59.25-.151.54-.25.83-.292 5.81-.83 11.64-1.94 17.35-3.31 1.22-.28 2.43.46 2.72 1.67.14.582.04 1.195-.27 1.705a2.29 2.29 0 0 1-1.4 1.015c-5.84 1.4-11.82 2.54-17.77 3.39-.11.03-.22.03-.32.03zm-75.39-4.21c-.19 0-.38-.02-.57-.07-5.8-1.52-11.61-3.33-17.26-5.4a2.15 2.15 0 0 1-.75-.458 2.35 2.35 0 0 1-.53-.712c-.12-.269-.19-.561-.21-.858-.01-.297.04-.593.14-.872.43-1.17 1.73-1.77 2.9-1.35 5.52 2.02 11.19 3.79 16.86 5.27 1.21.32 1.93 1.55 1.61 2.76-.13.484-.41.911-.81 1.217a2.25 2.25 0 0 1-1.38.473zm-43.49-17.34a2.26 2.26 0 0 1-1.09-.28c-5.26-2.89-10.44-6.07-15.42-9.44-1.03-.7-1.3-2.1-.6-3.14.7-1.03 2.11-1.3 3.14-.6 4.87 3.306 9.9 6.383 15.06 9.22 1.09.6 1.49 1.97.89 3.07a2.29 2.29 0 0 1-.83.856c-.35.205-.75.314-1.15.314zm-37.96-27.41c-.55 0-1.1-.2-1.54-.6-4.42-4.102-8.65-8.407-12.67-12.9a2.27 2.27 0 0 1-.57-1.632 2.23 2.23 0 0 1 .75-1.558c.45-.399 1.03-.604 1.63-.57a2.26 2.26 0 0 1 1.56.75c3.91 4.37 8.07 8.61 12.38 12.6.33.309.56.711.66 1.153s.06.904-.1 1.325c-.17.422-.46.783-.83 1.039s-.82.392-1.27.393zm-30.17-35.78c-.74 0-1.46-.36-1.89-1.03-3.29-5.04-6.37-10.29-9.15-15.6a2.29 2.29 0 0 1-.16-1.722c.18-.572.58-1.049 1.11-1.328 1.1-.58 2.47-.15 3.05.95 2.72 5.18 5.72 10.31 8.93 15.23a2.41 2.41 0 0 1 .33.819c.05.292.05.592-.01.883a2.21 2.21 0 0 1-.35.811 2.27 2.27 0 0 1-.63.617c-.37.241-.79.369-1.23.37zm-20.53-42.07a2.29 2.29 0 0 1-1.32-.422 2.26 2.26 0 0 1-.82-1.108c-1.94-5.67-3.64-11.52-5.04-17.36-.14-.582-.04-1.195.27-1.705a2.29 2.29 0 0 1 1.4-1.015c1.2-.28 2.43.46 2.72 1.67 1.38 5.724 3.02 11.381 4.93 16.95.4 1.18-.22 2.47-1.41 2.87-.24.079-.48.12-.73.12zm-9.6-45.81c-1.16 0-2.15-.88-2.25-2.06l-.04-.51c-.44-5.32-.66-10.71-.66-16l.01-1.57c.01-.596.25-1.166.67-1.585s.99-.655 1.59-.655c1.27.01 2.27 1.03 2.26 2.28l-.01 1.53c0 5.17.22 10.43.64 15.63l.04.48c.11 1.24-.81 2.34-2.05 2.45-.07 0-.13.01-.2.01zm1.76-46.8c-.12 0-.24-.01-.36-.03a2.26 2.26 0 0 1-1.47-.908c-.35-.486-.5-1.091-.4-1.682.96-5.94 2.22-11.89 3.74-17.7.31-1.21 1.54-1.92 2.76-1.61 1.21.32 1.93 1.55 1.61 2.76-1.48 5.67-2.71 11.48-3.65 17.28-.18 1.11-1.14 1.89-2.23 1.89zm13.2-45.04a2.22 2.22 0 0 1-.9-.19c-.55-.239-.98-.686-1.2-1.243a2.25 2.25 0 0 1 .03-1.727l3.83-8.29c.55-1.12 1.9-1.58 3.02-1.03s1.58 1.9 1.03 3.02l-3.74 8.1a2.21 2.21 0 0 1-.83.992c-.37.242-.8.37-1.24.368zm109.3-103.29a2.27 2.27 0 0 1-1.45-.529 2.22 2.22 0 0 1-.77-1.335c-.09-.522 0-1.06.26-1.52a2.28 2.28 0 0 1 1.18-.996l8.65-2.94c1.19-.38 2.46.29 2.83 1.48.18.571.12 1.19-.15 1.721a2.28 2.28 0 0 1-1.33 1.109l-8.45 2.87c-.25.09-.51.14-.77.14zm247.69 236.14c-.23 0-.45-.03-.68-.1-1.19-.38-1.85-1.64-1.48-2.83 1.73-5.529 3.21-11.135 4.43-16.8.26-1.22 1.46-1.99 2.68-1.73s2 1.46 1.73 2.68c-1.25 5.803-2.76 11.546-4.54 17.21-.29.95-1.18 1.57-2.14 1.57zm8.36-45.3h-.14a2.23 2.23 0 0 1-1.55-.756c-.4-.448-.61-1.036-.57-1.634a190.47 190.47 0 0 0 .35-11.46l-.09-5.92c-.01-.297.04-.593.14-.87.11-.278.27-.533.47-.749a2.36 2.36 0 0 1 .72-.513c.27-.122.56-.189.86-.198 1.25-.08 2.29.94 2.33 2.19a204.05 204.05 0 0 1 .09 6.06 191.57 191.57 0 0 1-.36 11.74c-.07 1.18-1.07 2.11-2.25 2.11zm-2.74-45.99c-1.07 0-2.02-.77-2.22-1.86-1.04-5.703-2.33-11.355-3.88-16.94-.33-1.2.37-2.45 1.57-2.78 1.2-.32 2.45.37 2.78 1.57 1.58 5.68 2.92 11.51 3.97 17.34.05.292.05.591-.01.881-.07.289-.19.564-.36.807a2.11 2.11 0 0 1-.63.611c-.25.16-.53.269-.82.321a1.3 1.3 0 0 1-.4.05zm-13.62-43.99c-.86 0-1.69-.5-2.06-1.33a183.93 183.93 0 0 0-7.85-15.5 2.28 2.28 0 0 1-.21-1.715 2.27 2.27 0 0 1 1.06-1.365 2.26 2.26 0 0 1 1.71-.209c.58.159 1.07.54 1.37 1.059 2.92 5.163 5.61 10.458 8.04 15.87.51 1.14 0 2.47-1.13 2.99-.31.13-.62.2-.93.2zm-23.84-39.4c-.67 0-1.33-.3-1.78-.86-3.56-4.54-7.38-8.97-11.34-13.16a2.39 2.39 0 0 1-.47-.745c-.11-.277-.16-.572-.15-.869a2.32 2.32 0 0 1 .2-.859c.12-.27.29-.514.51-.717.91-.85 2.34-.82 3.19.09 4.06 4.29 7.97 8.83 11.61 13.48.37.471.54 1.069.47 1.663a2.3 2.3 0 0 1-.85 1.507c-.41.31-.9.47-1.39.47zm-32.59-32.56c-.49 0-.98-.16-1.39-.48-4.56-3.577-9.29-6.94-14.16-10.08-1.05-.68-1.35-2.08-.67-3.12a2.29 2.29 0 0 1 .61-.634c.25-.169.52-.288.81-.35a2.25 2.25 0 0 1 .88-.013 2.28 2.28 0 0 1 .82.327c4.98 3.218 9.82 6.661 14.49 10.32a2.3 2.3 0 0 1 .85 1.506c.07.595-.1 1.193-.47 1.664-.43.57-1.1.86-1.77.86zm-39.42-23.83c-.31 0-.63-.06-.93-.2-5.25-2.37-10.69-4.52-16.16-6.39-1.18-.41-1.81-1.69-1.4-2.87a2.28 2.28 0 0 1 1.15-1.294 2.25 2.25 0 0 1 1.72-.106 189.67 189.67 0 0 1 16.55 6.55c.27.122.51.296.72.513.2.216.36.47.46.748a2.16 2.16 0 0 1 .15.87 2.32 2.32 0 0 1-.2.859c-.18.394-.47.727-.84.961-.36.234-.79.359-1.22.359zm-44-13.68a1.87 1.87 0 0 1-.4-.04 188.29 188.29 0 0 0-17.22-2.3c-1.24-.11-2.16-1.2-2.05-2.44s1.2-2.2 2.44-2.06c5.91.511 11.79 1.298 17.63 2.36 1.23.22 2.04 1.4 1.82 2.63-.19 1.09-1.14 1.85-2.22 1.85zm-63.47-.76c-1.1 0-2.06-.8-2.23-1.91-.05-.294-.03-.593.04-.882a2.18 2.18 0 0 1 .37-.8 2.38 2.38 0 0 1 .65-.596 2.26 2.26 0 0 1 .83-.302 198.28 198.28 0 0 1 13.9-1.64l3.79-.27c1.24-.08 2.32.87 2.39 2.12.08 1.24-.87 2.32-2.11 2.39l-3.7.27c-4.52.37-9.08.91-13.58 1.61-.12 0-.23.01-.35.01zm196.5 280.17a2.26 2.26 0 0 1-1.09-.28c-1.09-.6-1.49-1.97-.89-3.07l4.11-7.91c.55-1.12 1.9-1.59 3.02-1.03 1.12.55 1.58 1.9 1.03 3.02l-4.21 8.1c-.19.354-.48.65-.82.856-.35.206-.75.314-1.15.314zm-288.69-186.77c-.35.002-.7-.079-1.01-.237a2.22 2.22 0 0 1-.8-.673c-.75-1-.54-2.42.46-3.16l6.83-5.59c.45-.4 1.03-.607 1.63-.575s1.16.3 1.56.745a2.27 2.27 0 0 1 .58 1.63 2.28 2.28 0 0 1-.75 1.56l-7.15 5.85c-.4.31-.88.45-1.35.45zm-45.33 18.85c-1.1 0-2.06-.81-2.23-1.93-.18-1.23.67-2.38 1.9-2.57a98.49 98.49 0 0 0 17.9-4.42c1.18-.41 2.46.21 2.88 1.39.1.28.14.577.12.874-.01.296-.09.587-.22.854a2.31 2.31 0 0 1-.53.705 2.26 2.26 0 0 1-.76.447 103.56 103.56 0 0 1-18.72 4.63l-.34.02zm-30.57-.19c-.12 0-.24-.01-.36-.03a103.55 103.55 0 0 1-18.67-4.84c-1.17-.43-1.78-1.72-1.36-2.89s1.72-1.79 2.89-1.36c5.79 2.09 11.79 3.65 17.85 4.63a2.26 2.26 0 0 1 1.47.908c.35.486.5 1.091.4 1.682-.17 1.11-1.13 1.9-2.22 1.9zm-45.1-19.37a2.26 2.26 0 0 1-1.37-.46 101.82 101.82 0 0 1-14.15-13.09 2.27 2.27 0 0 1-.57-1.632 2.23 2.23 0 0 1 .75-1.558c.45-.399 1.03-.604 1.63-.57a2.26 2.26 0 0 1 1.56.75c4.09 4.57 8.64 8.78 13.53 12.51.24.181.43.406.58.663s.25.541.29.835.02.594-.06.881a2.34 2.34 0 0 1-.39.791c-.44.57-1.12.88-1.8.88zm-30.49-38.43c-.86 0-1.68-.49-2.06-1.33-.66-1.479-1.29-2.972-1.89-4.48-1.77-4.48-3.24-9.12-4.36-13.76-.29-1.21.45-2.43 1.67-2.72.29-.07.59-.082.88-.036a2.2 2.2 0 0 1 .83.305 2.12 2.12 0 0 1 .65.599c.18.24.3.513.37.802 1.07 4.44 2.47 8.87 4.17 13.16.57 1.444 1.17 2.874 1.81 4.29.51 1.14 0 2.47-1.13 2.99-.31.11-.63.18-.94.18zm-8.65-48.42c-.05 0-.11 0-.16-.01-.6-.043-1.15-.322-1.54-.773s-.59-1.04-.55-1.637l1.08-9.17c.2-1.23 1.36-2.08 2.59-1.87 1.23.2 2.07 1.36 1.86 2.59l-1.03 8.77c-.09 1.19-1.08 2.1-2.25 2.1zm39.64-72.99c-.69 0-1.36-.31-1.81-.9-.75-1-.55-2.41.45-3.16l7.62-5.22c1.06-.66 2.45-.33 3.11.73s.33 2.45-.73 3.11l-7.28 4.99c-.41.3-.88.45-1.36.45zm159.13 61.73c-1.07 0-2.01-.76-2.22-1.84-1.11-5.91-2.78-11.78-4.97-17.44-.22-.558-.2-1.179.04-1.727a2.25 2.25 0 0 1 1.25-1.193c.56-.215 1.18-.2 1.73.041a2.29 2.29 0 0 1 1.19 1.249c2.29 5.92 4.04 12.05 5.2 18.23.23 1.23-.58 2.41-1.8 2.64-.14.02-.28.04-.42.04zm-19.99-43.95a2.26 2.26 0 0 1-.99-.223 2.27 2.27 0 0 1-.78-.637c-3.76-4.748-7.95-9.134-12.52-13.1-.22-.194-.41-.43-.54-.695s-.21-.554-.23-.849a2.35 2.35 0 0 1 .11-.873 2.44 2.44 0 0 1 .44-.763c.82-.95 2.24-1.04 3.19-.23 4.77 4.14 9.18 8.75 13.1 13.7.77.98.61 2.4-.37 3.17-.42.35-.91.5-1.41.5zm-38.2-29.49c-.3 0-.61-.06-.91-.19-5.53-2.44-11.32-4.37-17.19-5.76-1.21-.29-1.97-1.5-1.68-2.72.07-.289.19-.562.37-.802.17-.241.39-.445.64-.601a2.29 2.29 0 0 1 .83-.309 2.27 2.27 0 0 1 .88.032c6.16 1.452 12.18 3.467 17.98 6.02 1.14.5 1.66 1.84 1.16 2.98-.38.85-1.21 1.35-2.08 1.35zm-65.85-5.27c-.5 0-.98-.166-1.38-.472a2.25 2.25 0 0 1-.8-1.218c-.32-1.21.4-2.44 1.61-2.76 6.13-1.61 12.39-2.648 18.71-3.1 1.25-.11 2.33.85 2.41 2.09.04.597-.16 1.185-.55 1.637a2.24 2.24 0 0 1-1.54.773c-6.02.43-12.04 1.43-17.88 2.96a1.71 1.71 0 0 1-.58.09zm123.59 117.76c-.15 0-.31-.02-.47-.05-.59-.125-1.1-.477-1.42-.98-.33-.502-.44-1.114-.32-1.7l1.43-8.71c.15-1.24 1.28-2.12 2.51-1.98 1.24.15 2.12 1.27 1.98 2.51l-1.5 9.11a2.3 2.3 0 0 1-.79 1.29 2.25 2.25 0 0 1-1.42.51z"/></g><path d="M1585.13 290.31c-10.65 0-20.94-3.48-29.51-10.09-10.28-7.91-16.86-19.35-18.53-32.21a48.46 48.46 0 0 1-.41-6.37c0-10.64 3.48-20.94 10.09-29.51 7.91-10.28 19.35-16.86 32.21-18.53 12.86-1.68 25.6 1.76 35.88 9.67s16.86 19.35 18.53 32.21c.41 3.19.52 6.41.3 9.59l-.06.74-6.75-.56a44.15 44.15 0 0 0 .14-3.45c0-1.82-.12-3.63-.35-5.45a42.08 42.08 0 0 0-.92-4.85c0-.01-.01-.02-.01-.03 0-.02-.01-.03-.01-.05-2.29-9.04-7.5-17.01-15.01-22.78-8.84-6.81-19.81-9.77-30.87-8.32-11.07 1.44-20.91 7.1-27.72 15.95-5.68 7.38-8.68 16.24-8.68 25.39 0 1.832.12 3.663.36 5.48 1.44 11.07 7.1 20.91 15.95 27.72 8.84 6.81 19.81 9.77 30.87 8.32 7.51-.98 14.6-3.96 20.51-8.64l4.2 5.31c-6.87 5.44-15.11 8.91-23.84 10.04-2.13.28-4.25.42-6.37.42z" class="L"/><path d="M1229.2 653.66c-.2-2.47-2.72-4.6-6.98-6.31 4.64-2.56 7.2-5.3 6.98-7.98-.66-8.13-26.41-12.69-57.52-10.18s-55.8 11.13-55.15 19.27c.2 2.47 2.72 4.6 6.98 6.31-4.64 2.56-7.2 5.3-6.98 7.98.2 2.47 2.72 4.6 6.98 6.31-4.64 2.56-7.2 5.3-6.98 7.98.2 2.47 2.72 4.6 6.98 6.31-4.64 2.56-7.2 5.3-6.98 7.98.29 3.6 5.5 6.49 13.9 8.39-.11 2.66-.05 5.57.21 8.79 1.22 14.99 18.07 26.73 40.37 26.73 22.29 0 41.59-16.02 41.81-31.05.05-3.68-.1-6.93-.44-9.81 10.67-3.56 17.16-7.91 16.82-12.13-.2-2.47-2.72-4.6-6.98-6.31 4.64-2.56 7.2-5.3 6.98-7.98-.2-2.47-2.72-4.6-6.98-6.31 4.63-2.56 7.19-5.3 6.98-7.99z" class="H"/><path d="M1157.28 702.97c-9.24 0-17.69-.68-24.68-2.02-.1-.018-.19-.055-.27-.108s-.15-.123-.21-.204c-.05-.081-.09-.172-.11-.268a.71.71 0 0 1 0-.29c.08-.4.47-.67.87-.59 10.93 2.09 25.53 2.55 41.11 1.3 12.75-1.03 24.67-3.08 34.48-5.95.4-.12.81.11.93.51s-.11.81-.51.93c-9.9 2.89-21.93 4.97-34.78 6-5.79.45-11.44.69-16.83.69z" fill="url(#B)"/><path d="M1157.43 688.66c-12.01 0-22.73-1.13-30.3-3.28-.4-.11-.63-.53-.51-.92a.82.82 0 0 1 .13-.261c.06-.078.14-.142.22-.19.09-.047.18-.077.28-.087a.72.72 0 0 1 .29.028c10.78 3.07 28.15 4.02 46.45 2.55 18.1-1.46 34.99-5.13 45.16-9.83.38-.17.82-.01.99.37.17.37.01.82-.37.99-10.33 4.76-27.4 8.49-45.67 9.96-5.69.44-11.31.67-16.67.67z" fill="url(#C)"/><path d="M1157.28 674.37c-12.96 0-24.31-1.33-31.94-3.84-.39-.13-.6-.55-.48-.94.13-.39.55-.61.94-.48 10.62 3.5 28.64 4.65 48.18 3.08 18.1-1.46 34.99-5.13 45.16-9.83.38-.17.82-.01.99.37.17.37.01.82-.37.99-10.33 4.76-27.4 8.49-45.67 9.96-5.77.46-11.43.69-16.81.69z" fill="url(#D)"/><path d="M1157.38 660.06c-10.28 0-19.63-.83-26.91-2.45a.77.77 0 0 1-.47-.328.74.74 0 0 1-.1-.562.73.73 0 0 1 .33-.468.74.74 0 0 1 .56-.102c10.93 2.43 26.68 3.06 43.19 1.73 17.94-1.45 34.74-5.08 44.93-9.72.38-.17.82-.01.99.37s.01.82-.37.99c-10.34 4.71-27.33 8.39-45.43 9.85-5.56.458-11.14.688-16.72.69z" fill="url(#E)"/><path d="M1095.64 581.49c-3.78-13.38-10.2-25.89-18.84-36.79-18.52-23.34-48.74-70.82-52.46-135.61-5.41-94.24 78.17-141.43 154.45-135.02 76.27 6.41 151.53 63.2 143.29 150.87-5.07 53.95-35.26 94.87-57.75 118.37-14.28 14.92-24.46 33.2-29.97 53.1-6.75 24.36-22.8 54.72-60.97 56.57-49.37 2.39-69.88-43.64-77.75-71.49z" class="E"/><g fill="#ffb4b2"><path d="M1186.01 634.18l26.69-173.58c.55-3.59 2.32-5.99 3.94-5.38 1.63.62 2.5 4.02 1.95 7.61l-.05.31-30.4 171.96c-.23 1.29-.89 2.11-1.47 1.82-.56-.27-.85-1.48-.66-2.74zm-27.7 1.38l-26.69-173.58c-.55-3.59-2.32-5.99-3.94-5.38-1.63.62-2.5 4.02-1.94 7.61.01.104.03.208.05.31l30.4 171.96c.23 1.29.89 2.11 1.47 1.82.56-.27.84-1.49.65-2.74z"/></g><path d="M1212.51 445.7c-.68-1.09-2.25-1.5-3.5-.91l-14.86 6.94-5.16-14.7c-.27-.77-.91-1.45-1.81-1.82-1.71-.7-3.75-.07-4.57 1.41l-.03.05-12.22 22.28-11.34-31.72-.02-.05c-.28-.77-.86-1.47-1.72-1.94-1.9-1.04-4.41-.54-5.61 1.11l-17.08 23.52c-.69.96-.46 2.26.6 2.97 1.13.76 2.76.58 3.63-.39l15.04-16.78 13.54 30.17.01.02c.22.48.63.9 1.19 1.17 1.27.6 2.86.18 3.54-.92l13.07-20.97 4.92 10.61.04.09.12.23c.68 1.09 2.24 1.5 3.5.91l17.64-8.24c1.29-.59 1.76-1.95 1.08-3.04z" fill="url(#F)"/><path d="M1264.92 520.93a3.38 3.38 0 0 1-2.02-.67c-1.5-1.11-1.82-3.24-.7-4.74 4.54-6.12 8.71-12.45 12.38-18.8.94-1.62 3.01-2.17 4.63-1.24 1.62.94 2.18 3.01 1.24 4.63-3.8 6.58-8.11 13.13-12.81 19.46-.66.89-1.69 1.36-2.72 1.36z" fill="url(#G)"/><path d="M1286.87 483.25c-.45 0-.91-.09-1.35-.28-1.72-.75-2.5-2.74-1.76-4.46 28.2-64.94 3.88-119.45 3.63-120-.37-.817-.41-1.749-.09-2.591a3.36 3.36 0 0 1 1.76-1.899 3.39 3.39 0 0 1 2.59-.094c.84.313 1.53.948 1.9 1.764 1.07 2.33 25.82 57.83-3.57 125.52-.26.607-.7 1.124-1.25 1.486s-1.2.555-1.86.554z" fill="url(#H)"/><path d="M1542.01 891.18c-5.09-1.75-4.36-9.19.98-9.88 24.33-3.15 59.98-12.68 71.66-41.22 18.32-44.78-19.63-217.45 154.71-248.35 160.81-28.5 250.38 22.39 248.35 170.99-1.98 144.05-233.47 211.58-475.7 128.46z" fill="#fc9085"/><g class="C"><path d="M1662.39 731.66h15.6v122.06h-15.6V731.66zm26.07 41.95h15.6v80.11h-15.6v-80.11zm26.06-103.68h15.6v183.79h-15.6V669.93zm26.06 139.64h15.6v44.15h-15.6v-44.15zm26.07-115.07h15.6v159.21h-15.6V694.5zm26.06 27.57h15.6v131.65h-15.6V722.07zm26.07 29.96h15.6v101.68h-15.6V752.03zm26.06-119.25h15.6v220.94h-15.6V632.78zm26.07 23.37h15.6v197.57h-15.6V656.15zm26.06 35.36h15.6v162.21h-15.6V691.51zm26.06 122.15h15.6v40.05h-15.6v-40.05z"/></g><path d="M1989.94 263.11l.46 9.7c.04.81-.59 1.5-1.4 1.54s-1.5-.59-1.54-1.4v-.02l-.46-9.67v-.02a1.56 1.56 0 0 1 .38-1.06 1.5 1.5 0 0 1 .46-.342c.18-.082.37-.129.56-.138.39-.014.77.126 1.06.39s.46.63.48 1.02zm.81 19.42l.22 9.71c.01.391-.14.769-.41 1.052a1.48 1.48 0 0 1-1.03.458 1.47 1.47 0 0 1-1.05-.409 1.49 1.49 0 0 1-.46-1.031v-.02l-.23-9.67v-.02c-.01-.391.14-.769.41-1.052s.64-.448 1.03-.458c.82-.02 1.5.62 1.52 1.44zm.33 19.42l-.01 9.72c0 .81-.66 1.47-1.47 1.47s-1.47-.66-1.47-1.47v-.02l.01-9.68v-.02c0-.81.66-1.47 1.47-1.47.19-.001.39.036.56.109.18.074.35.182.48.319a1.36 1.36 0 0 1 .32.478c.07.179.11.371.11.564zm-.15 19.43l-.26 9.71c-.02.81-.7 1.45-1.51 1.43s-1.45-.7-1.43-1.51v-.02l.25-9.67v-.02c.02-.81.7-1.45 1.51-1.43.82.02 1.46.7 1.44 1.51zm-.64 19.41l-.5 9.7c-.04.81-.73 1.43-1.54 1.39s-1.43-.73-1.39-1.54v-.02l.5-9.66v-.02c.04-.81.73-1.43 1.54-1.39.19.009.38.056.56.138.17.083.33.199.46.342a1.54 1.54 0 0 1 .29.493c.06.182.09.374.08.567zm-1.13 19.4l-.76 9.69c-.03.388-.21.749-.51 1.002s-.68.378-1.07.348-.75-.214-1-.511c-.26-.296-.38-.681-.35-1.069v-.02l.75-9.65v-.02a1.45 1.45 0 0 1 .51-1.002c.3-.253.68-.378 1.07-.348.82.07 1.42.77 1.36 1.58zm-1.65 19.37l-1.02 9.67c-.09.8-.81 1.39-1.61 1.3s-1.39-.81-1.3-1.61v-.02l1.02-9.63v-.02c.09-.8.81-1.39 1.61-1.3.8.08 1.38.8 1.3 1.61zm-2.18 19.31l-1.3 9.63c-.11.8-.84 1.36-1.64 1.25s-1.36-.84-1.25-1.64v-.02l1.29-9.59v-.02c.11-.8.84-1.36 1.65-1.26s1.36.85 1.25 1.65zm-2.73 19.23l-1.58 9.59c-.13.8-.88 1.34-1.68 1.2-.8-.13-1.33-.88-1.2-1.68v-.02l1.57-9.54v-.02c.13-.8.88-1.34 1.68-1.2.8.12 1.34.88 1.21 1.67zm-3.3 19.15l-1.87 9.54c-.04.188-.11.367-.21.527-.11.16-.25.298-.41.405-.15.106-.33.181-.52.218a1.44 1.44 0 0 1-.57 0c-.79-.16-1.31-.92-1.15-1.71v-.02l1.86-9.49v-.02c.04-.188.11-.368.21-.527.11-.16.25-.298.41-.405a1.34 1.34 0 0 1 .52-.218 1.44 1.44 0 0 1 .57 0c.8.15 1.31.91 1.16 1.7zm-3.9 19.05l-2.18 9.47c-.09.376-.32.702-.65.907a1.46 1.46 0 0 1-1.1.183c-.19-.042-.36-.122-.52-.233s-.29-.252-.39-.415-.17-.344-.2-.533-.02-.383.02-.569l.01-.02 2.16-9.43.01-.02c.18-.79.96-1.28 1.75-1.09.38.088.7.322.91.65.2.328.27.723.18 1.1zm-4.5 18.91l-2.49 9.4c-.05.184-.13.357-.25.509a1.46 1.46 0 0 1-.43.375 1.41 1.41 0 0 1-.53.183c-.19.025-.39.012-.57-.037s-.36-.134-.51-.251-.28-.26-.37-.426c-.1-.165-.16-.348-.19-.537-.02-.189-.01-.382.04-.566l.01-.02 2.48-9.35.01-.02c.05-.185.13-.358.25-.51a1.46 1.46 0 0 1 .43-.375c.16-.096.34-.158.53-.183s.39-.012.57.038c.76.19 1.22.99 1.02 1.77zm-5.15 18.75l-2.82 9.3c-.06.182-.15.352-.27.5s-.27.27-.43.36c-.17.09-.36.146-.55.165a1.43 1.43 0 0 1-.56-.055c-.18-.055-.35-.146-.5-.267s-.27-.269-.36-.437a1.48 1.48 0 0 1-.17-.542c-.01-.19 0-.382.06-.564l.01-.02 2.8-9.26.01-.03c.05-.183.15-.353.27-.501s.27-.27.43-.36c.17-.09.36-.146.55-.165a1.45 1.45 0 0 1 .56.056c.76.24 1.2 1.05.97 1.82zm-5.82 18.55l-3.16 9.2a1.44 1.44 0 0 1-.73.83 1.46 1.46 0 0 1-1.94-.664c-.17-.345-.19-.743-.07-1.106l.01-.03 3.14-9.15.01-.03c.26-.76 1.09-1.16 1.85-.9.75.27 1.16 1.1.89 1.85zm-6.49 18.34l-3.51 9.07c-.07.178-.17.34-.3.478-.14.139-.29.249-.47.326-.17.077-.36.119-.55.124s-.38-.029-.56-.098-.34-.172-.48-.304-.25-.29-.32-.464c-.08-.175-.12-.363-.13-.554a1.52 1.52 0 0 1 .1-.558l.01-.03 3.49-9.02.01-.03a1.49 1.49 0 0 1 .3-.479c.14-.139.29-.25.47-.327.17-.077.36-.119.55-.123a1.48 1.48 0 0 1 .56.099c.75.3 1.12 1.14.83 1.89zm-7.21 18.06l-3.87 8.92c-.32.73-1.17 1.07-1.91.75-.73-.32-1.07-1.17-.75-1.9l.01-.03 3.85-8.87.01-.03c.32-.73 1.17-1.07 1.91-.75.35.156.63.443.77.801a1.47 1.47 0 0 1-.02 1.109zm-7.93 17.77l-4.24 8.75c-.17.336-.47.591-.83.71s-.75.095-1.09-.07-.6-.455-.72-.811a1.42 1.42 0 0 1 .04-1.089l.01-.03 4.22-8.7.01-.03c.08-.171.2-.324.34-.451s.31-.223.49-.286a1.41 1.41 0 0 1 .55-.077c.19.012.38.061.55.144.72.35 1.02 1.22.67 1.94zm-8.67 17.41l-4.62 8.56c-.18.336-.49.586-.86.696a1.46 1.46 0 0 1-1.1-.106 1.45 1.45 0 0 1-.7-.859c-.11-.367-.07-.762.11-1.101l.02-.03 4.59-8.51.02-.03c.38-.7 1.26-.97 1.96-.59.69.39.96 1.27.58 1.97zm-9.43 17.02l-5 8.35c-.2.328-.52.564-.89.658s-.76.037-1.09-.158-.56-.516-.66-.887a1.49 1.49 0 0 1 .16-1.093l.02-.03 4.97-8.29.02-.03c.2-.328.52-.564.89-.658s.76-.037 1.09.158c.68.41.9 1.3.49 1.98zm-10.19 16.58l-5.38 8.11c-.44.66-1.33.84-2 .4-.66-.44-.84-1.33-.4-2l.02-.03 5.34-8.05.02-.03c.44-.66 1.34-.84 2-.4.65.44.84 1.33.4 2zm-10.96 16.08l-5.76 7.84a1.44 1.44 0 0 1-.94.57c-.38.059-.76-.035-1.07-.26s-.51-.564-.57-.941.04-.761.26-1.069l.02-.03 5.72-7.79.02-.03c.23-.307.56-.512.94-.571a1.44 1.44 0 0 1 1.07.261c.64.48.78 1.38.31 2.02zm-11.72 15.54l-6.14 7.55c-.5.62-1.41.71-2.02.21-.62-.5-.71-1.41-.21-2.02l.02-.03 6.09-7.5.02-.03c.5-.62 1.41-.71 2.02-.21.63.51.73 1.42.22 2.03zm-12.46 14.95l-6.5 7.24c-.25.283-.61.454-.99.474a1.44 1.44 0 0 1-1.04-.364c-.28-.255-.45-.612-.47-.992-.03-.381.11-.754.36-1.038l.02-.03 6.46-7.19.02-.03c.25-.283.61-.454.99-.474a1.44 1.44 0 0 1 1.04.364c.59.55.64 1.45.11 2.04zm-13.18 14.32l-6.86 6.91c-.56.56-1.47.57-2.03.01s-.57-1.47-.01-2.03l.02-.03 6.84-6.89c.56-.56 1.47-.57 2.03-.01.56.57.57 1.48.01 2.04zm-13.89 13.64l-7.19 6.56c-.58.53-1.49.49-2.02-.09s-.49-1.49.09-2.02l.03-.02 7.14-6.51.03-.02c.59-.53 1.49-.49 2.03.09.52.57.48 1.48-.11 2.01zm-14.55 12.94l-7.51 6.19c-.61.5-1.51.42-2.01-.19s-.42-1.51.19-2.01l.03-.02 7.46-6.15.03-.02c.29-.241.67-.357 1.05-.321s.73.219.97.511c.49.6.4 1.5-.21 2.01zm-15.17 12.19l-7.81 5.81c-.63.47-1.53.34-2-.29s-.34-1.53.29-2l.03-.02 7.75-5.77.03-.02c.63-.47 1.53-.34 2 .29s.34 1.53-.29 2zm-15.75 11.44l-8.08 5.43c-.65.44-1.54.27-1.98-.39-.44-.65-.27-1.54.39-1.98l.03-.02 8.02-5.39.03-.02c.65-.44 1.54-.27 1.98.39.44.65.26 1.54-.39 1.98zm-16.29 10.66l-8.33 5.04a1.43 1.43 0 0 1-1.96-.48c-.2-.324-.25-.712-.16-1.079s.32-.684.64-.881l.03-.02 8.27-5.01.03-.02a1.42 1.42 0 0 1 .53-.19 1.4 1.4 0 0 1 .55.025c.19.045.36.126.51.238s.28.251.38.412c.09.161.16.339.18.525.03.186.02.375-.02.558-.05.182-.13.354-.24.505s-.25.28-.41.377zm-16.76 9.89l-8.54 4.65c-.16.09-.34.147-.53.167s-.38.004-.56-.049a1.54 1.54 0 0 1-.49-.258 1.36 1.36 0 0 1-.35-.427c-.09-.165-.15-.346-.17-.532a1.48 1.48 0 0 1 .05-.554c.05-.18.14-.347.26-.492s.27-.266.43-.355l.03-.02 8.48-4.62.03-.02a1.37 1.37 0 0 1 .53-.166c.19-.02.37-.003.55.05a1.49 1.49 0 0 1 .5.259c.14.117.26.263.35.427a1.42 1.42 0 0 1 .11 1.087c-.1.363-.35.669-.68.853zm-17.19 9.1l-8.74 4.27c-.71.35-1.56.05-1.9-.65-.34-.71-.05-1.56.65-1.9l.03-.01 8.68-4.24.03-.01c.71-.34 1.56-.05 1.9.65a1.41 1.41 0 0 1 .14.533c.02.186-.01.372-.07.548s-.15.339-.28.477c-.12.139-.27.252-.44.332zm-17.56 8.35l-8.91 3.89a1.43 1.43 0 0 1-1.09.022 1.41 1.41 0 0 1-.8-1.838c.13-.351.41-.633.75-.784l.03-.01 8.86-3.87.03-.01a1.43 1.43 0 0 1 1.09-.022 1.41 1.41 0 0 1 .78.752c.15.347.15.736.01 1.085s-.41.631-.75.785zm-17.91 7.59l-9.06 3.52c-.35.134-.74.124-1.09-.027-.34-.152-.61-.433-.75-.783-.13-.352-.12-.742.03-1.086s.43-.616.78-.754l.03-.01 9.01-3.5.03-.01a1.44 1.44 0 0 1 1.09.027c.34.152.61.433.75.783a1.46 1.46 0 0 1-.03 1.087c-.16.344-.44.614-.79.753zm-18.2 6.87l-9.2 3.17c-.18.061-.36.087-.55.076-.18-.011-.37-.059-.53-.141a1.35 1.35 0 0 1-.44-.336 1.32 1.32 0 0 1-.28-.479c-.12-.356-.1-.744.07-1.082a1.42 1.42 0 0 1 .81-.718l.03-.01 9.14-3.15.03-.01c.36-.121.74-.097 1.08.068s.6.457.72.812c.26.73-.14 1.54-.88 1.8zm-18.45 6.15l-9.31 2.82a1.44 1.44 0 0 1-.55.061 1.36 1.36 0 0 1-.53-.157c-.17-.087-.32-.206-.43-.35a1.51 1.51 0 0 1-.27-.489 1.47 1.47 0 0 1-.05-.552c.02-.186.07-.366.16-.53a1.37 1.37 0 0 1 .36-.427c.14-.117.31-.204.49-.256l.02-.01 9.26-2.81.02-.01c.75-.23 1.54.2 1.77.94a1.29 1.29 0 0 1 .06.551 1.42 1.42 0 0 1-.16.532c-.08.165-.2.311-.35.429-.14.118-.31.205-.49.258zm-18.66 5.48l-9.4 2.49a1.42 1.42 0 0 1-1.07-.144c-.32-.188-.56-.495-.66-.856-.09-.362-.04-.747.14-1.071.19-.324.5-.561.86-.659l.02-.01 9.35-2.48.02-.01a1.42 1.42 0 0 1 1.07.144 1.44 1.44 0 0 1 .66.856c.22.76-.23 1.54-.99 1.74zm-18.84 4.82l-9.48 2.17c-.76.17-1.52-.3-1.69-1.06s.3-1.52 1.06-1.69l.02-.01 9.43-2.16.02-.01c.76-.17 1.52.3 1.69 1.06.04.181.05.368.02.552s-.09.36-.19.518a1.32 1.32 0 0 1-.38.404 1.38 1.38 0 0 1-.5.226zm-18.98 4.19l-9.53 1.87c-.37.071-.74-.007-1.05-.215s-.53-.53-.6-.895.01-.745.21-1.054a1.41 1.41 0 0 1 .9-.596h.02l9.49-1.86h.02a1.42 1.42 0 0 1 1.06.214c.31.208.53.53.6.896a1.4 1.4 0 0 1-1.12 1.64zm-19.1 3.59l-9.59 1.58c-.77.13-1.49-.39-1.62-1.16s.39-1.49 1.16-1.62h.02l9.55-1.58h.02c.77-.13 1.49.39 1.62 1.16.03.183.03.37-.02.55-.04.181-.11.352-.22.502s-.25.279-.4.376c-.16.098-.34.163-.52.192zm-19.2 3.03l-9.63 1.31c-.77.1-1.48-.43-1.58-1.2s.43-1.48 1.2-1.58h.02l9.59-1.3h.02c.77-.1 1.48.43 1.58 1.2.11.75-.43 1.46-1.2 1.57zm-19.27 2.48l-9.66 1.05a1.41 1.41 0 0 1-1.03-.301 1.4 1.4 0 0 1-.52-.939c-.04-.37.07-.74.3-1.03s.57-.477.94-.52h.02l9.62-1.05h.02a1.4 1.4 0 0 1 1.03.305c.29.234.48.574.52.945.02.183.01.368-.05.544a1.29 1.29 0 0 1-.25.485c-.11.143-.26.262-.42.35s-.34.142-.52.161zm-19.34 1.97l-9.69.8c-.37.03-.74-.087-1.02-.327a1.41 1.41 0 0 1-.49-.953c-.03-.37.09-.737.33-1.02s.58-.46.95-.49h.02l9.65-.8h.02c.37-.031.74.087 1.02.327a1.41 1.41 0 0 1 .49.953c.07.77-.51 1.45-1.28 1.51zm-19.38 1.49l-9.69.57c-.18.011-.37-.015-.54-.075-.18-.061-.34-.155-.47-.278-.14-.122-.25-.271-.33-.437a1.4 1.4 0 0 1-.14-.53c-.05-.77.54-1.44 1.32-1.48h.02l9.66-.57h.02c.77-.05 1.44.54 1.48 1.32.01.371-.12.733-.37 1.009-.24.276-.59.445-.96.471zm-19.4 1.02l-9.71.35c-.77.03-1.42-.58-1.45-1.35s.58-1.42 1.35-1.45h.02l9.68-.35h.02c.77-.03 1.42.58 1.45 1.35.02.77-.58 1.42-1.36 1.45zm-19.42.58l-9.72.13c-.77.01-1.41-.61-1.42-1.38s.61-1.41 1.38-1.42h.01l9.69-.14h.01c.77-.01 1.41.61 1.42 1.38.02.79-.6 1.42-1.37 1.43zm-19.42.18l-9.7-.02c-.77 0-1.39-.63-1.39-1.4s.64-1.39 1.41-1.39l9.68.02c.77 0 1.4.62 1.4 1.39 0 .371-.15.727-.41.99a1.4 1.4 0 0 1-.99.41zm-19.41-.1l-9.71-.14c-.77-.01-1.38-.64-1.37-1.41s.65-1.38 1.42-1.37l9.69.14c.77.01 1.39.64 1.38 1.41 0 .76-.63 1.38-1.41 1.37zm-19.42-.34l-9.71-.26c-.77-.02-1.37-.66-1.35-1.43s.67-1.37 1.44-1.35l9.69.26c.77.02 1.38.65 1.36 1.42 0 .183-.04.364-.12.532-.07.168-.18.319-.31.446s-.29.225-.46.291-.36.096-.54.091zm-19.41-.58l-9.7-.38c-.77-.03-1.37-.68-1.34-1.44a1.38 1.38 0 0 1 .13-.528c.08-.165.18-.314.32-.438a1.36 1.36 0 0 1 .46-.282 1.42 1.42 0 0 1 .54-.082l9.69.37c.77.03 1.37.67 1.34 1.44-.02.76-.66 1.37-1.44 1.34zm-19.4-.81l-9.7-.49c-.18-.009-.36-.054-.53-.132a1.4 1.4 0 0 1-.43-.324c-.13-.136-.22-.294-.28-.467a1.4 1.4 0 0 1-.08-.537c.04-.77.7-1.36 1.46-1.32l9.68.49c.37.016.72.178.97.449.24.272.38.632.36 1.001s-.18.716-.45.965-.63.381-1 .365zm-19.39-1.04l-9.69-.6c-.76-.05-1.35-.71-1.3-1.47s.71-1.35 1.48-1.3l9.68.6c.76.04 1.35.7 1.31 1.46-.06.77-.71 1.36-1.48 1.31zm-19.38-1.25l-9.68-.71c-.76-.06-1.34-.72-1.28-1.48s.73-1.34 1.49-1.28l9.67.7a1.38 1.38 0 0 1 .95.473 1.42 1.42 0 0 1 .34 1.007c-.06.77-.72 1.34-1.49 1.29zm-19.36-1.46l-9.67-.81c-.76-.06-1.33-.73-1.26-1.49.06-.76.74-1.33 1.5-1.26l9.66.81a1.38 1.38 0 0 1 .94.483c.24.28.36.641.33 1.007-.07.75-.73 1.32-1.5 1.26zm-19.35-1.67l-9.67-.91c-.76-.07-1.32-.75-1.25-1.5.04-.366.21-.702.5-.937.28-.234.64-.346 1.01-.313l9.65.91c.18.016.36.068.52.152a1.46 1.46 0 0 1 .42.339c.11.139.2.3.25.473a1.22 1.22 0 0 1 .06.536c-.05.75-.72 1.31-1.49 1.25zm-19.32-1.87l-9.65-1.01c-.36-.046-.68-.231-.91-.514-.22-.284-.33-.644-.29-1.003s.22-.689.49-.92c.28-.23.64-.343 1-.313l9.63 1c.76.07 1.31.75 1.24 1.51-.06.77-.74 1.32-1.51 1.25zm-19.29-2.06l-9.64-1.1c-.76-.09-1.3-.77-1.21-1.53.04-.363.23-.695.51-.922a1.4 1.4 0 0 1 1.02-.288l9.63 1.1c.76.08 1.3.76 1.22 1.52-.04.364-.23.696-.51.925-.29.228-.66.334-1.02.295zm-19.28-2.25l-9.63-1.19c-.36-.045-.69-.231-.92-.518-.22-.286-.32-.65-.28-1.012a1.43 1.43 0 0 1 .52-.916 1.4 1.4 0 0 1 1.02-.284l9.62 1.19c.76.09 1.3.77 1.21 1.53-.09.75-.78 1.29-1.54 1.2zm-19.26-2.42l-9.62-1.28c-.75-.1-1.28-.79-1.18-1.54s.8-1.28 1.55-1.18l9.61 1.27c.75.1 1.29.79 1.19 1.54s-.79 1.29-1.55 1.19zm-19.24-2.6l-9.62-1.36c-.36-.052-.68-.244-.9-.534s-.32-.656-.27-1.016.25-.686.54-.904a1.39 1.39 0 0 1 1.02-.266l9.6 1.36a1.4 1.4 0 0 1 .51.175c.15.092.29.213.4.357s.18.308.23.483a1.21 1.21 0 0 1 .03.535c-.09.75-.78 1.28-1.54 1.17zm-19.23-2.76l-9.61-1.44a1.32 1.32 0 0 1-.5-.182c-.16-.093-.29-.215-.4-.36a1.44 1.44 0 0 1-.23-.484 1.37 1.37 0 0 1-.02-.534c.11-.75.82-1.26 1.56-1.15l9.6 1.44c.75.11 1.27.81 1.16 1.56-.03.178-.09.349-.18.503a1.4 1.4 0 0 1-.36.395 1.39 1.39 0 0 1-.49.227c-.17.044-.35.052-.53.025zm-19.21-2.93l-9.59-1.52c-.18-.028-.35-.091-.5-.185-.16-.094-.29-.218-.4-.363a1.44 1.44 0 0 1-.22-.487c-.04-.175-.05-.357-.02-.535.12-.75.83-1.26 1.57-1.14l9.58 1.52c.18.027.35.088.5.181.16.093.29.216.4.361a1.44 1.44 0 0 1 .23.484 1.37 1.37 0 0 1 .02.534 1.52 1.52 0 0 1-.18.508c-.09.155-.22.29-.36.398-.15.107-.32.184-.49.226-.18.041-.36.048-.54.018zm-19.17-3.07l-9.57-1.59c-.75-.12-1.25-.83-1.12-1.57.12-.74.83-1.25 1.58-1.12l9.56 1.59c.75.12 1.25.82 1.13 1.57-.12.73-.82 1.24-1.58 1.12zm-19.14-3.23l-9.56-1.66c-.36-.064-.67-.265-.88-.561s-.29-.663-.23-1.019a1.38 1.38 0 0 1 .56-.881c.3-.208.66-.29 1.02-.229l9.55 1.66c.36.063.67.265.88.56s.3.662.24 1.02c-.12.74-.83 1.24-1.58 1.11zm-19.12-3.36l-9.55-1.73c-.74-.13-1.23-.84-1.1-1.59.13-.74.85-1.23 1.59-1.1l9.54 1.73a1.36 1.36 0 0 1 .88.561c.21.296.29.662.23 1.019-.13.75-.84 1.24-1.59 1.11zm-19.09-3.5l-9.54-1.8c-.74-.14-1.23-.85-1.09-1.59s.86-1.22 1.59-1.09l9.53 1.79c.74.14 1.23.85 1.09 1.59-.13.75-.84 1.24-1.58 1.1zm-19.07-3.62l-9.53-1.86c-.74-.14-1.22-.86-1.07-1.6.14-.74.86-1.22 1.6-1.07l9.52 1.86c.35.068.67.273.87.571a1.36 1.36 0 0 1 .21 1.019c-.07.355-.28.667-.58.87a1.36 1.36 0 0 1-1.02.21zm-19.05-3.75l-9.51-1.92a1.34 1.34 0 0 1-.49-.203c-.15-.099-.28-.227-.37-.376a1.27 1.27 0 0 1-.2-.491c-.04-.175-.04-.355 0-.53.15-.74.87-1.21 1.6-1.06l9.51 1.91c.74.15 1.22.86 1.07 1.6s-.87 1.22-1.61 1.07zm-19.02-3.86l-9.5-1.97a1.44 1.44 0 0 1-.49-.205 1.49 1.49 0 0 1-.37-.377 1.44 1.44 0 0 1-.2-.49 1.34 1.34 0 0 1 .01-.528c.15-.73.87-1.2 1.61-1.05l9.5 1.97c.73.15 1.21.87 1.06 1.6-.17.73-.88 1.2-1.62 1.05zm-19-3.98l-9.49-2.03c-.73-.16-1.2-.88-1.04-1.61s.88-1.2 1.61-1.04l9.48 2.02c.73.15 1.2.87 1.05 1.61-.16.74-.88 1.21-1.61 1.05zm-18.98-4.07l-9.48-2.08a1.35 1.35 0 0 1-.848-.592c-.194-.302-.259-.668-.182-1.018a1.35 1.35 0 0 1 .592-.848c.302-.194.668-.259 1.018-.182l9.47 2.07c.73.16 1.2.88 1.04 1.61s-.87 1.2-1.61 1.04zm-18.95-4.18l-9.47-2.12a1.35 1.35 0 0 1-.482-.211c-.146-.102-.269-.231-.364-.381s-.159-.317-.189-.492a1.33 1.33 0 0 1 .015-.526c.16-.73.89-1.19 1.62-1.02l9.46 2.12c.173.038.338.11.483.211s.27.231.366.38a1.35 1.35 0 0 1 .192.492c.031.174.027.354-.011.527-.17.72-.89 1.18-1.62 1.02zm-18.94-4.27l-9.46-2.17c-.73-.17-1.18-.89-1.01-1.62s.89-1.18 1.62-1.01l9.45 2.16c.73.16 1.18.89 1.02 1.62s-.89 1.19-1.62 1.02zm-18.91-4.35l-9.45-2.21c-.72-.17-1.18-.89-1.01-1.62s.9-1.17 1.62-1.01l9.44 2.2c.73.17 1.18.89 1.01 1.62-.037.174-.108.339-.209.485a1.34 1.34 0 0 1-.381.365 1.32 1.32 0 0 1-.493.188c-.175.029-.354.023-.527-.018zm-18.9-4.43l-9.44-2.25c-.347-.083-.647-.3-.834-.604s-.247-.669-.166-1.016.3-.647.604-.834.669-.247 1.016-.166l9.44 2.24c.347.083.647.3.834.604s.247.669.166 1.016c-.17.73-.89 1.18-1.62 1.01zm-18.87-4.51l-9.43-2.28c-.72-.17-1.17-.9-.99-1.62.17-.72.9-1.17 1.63-.99l9.43 2.28c.72.17 1.17.9.99 1.62-.088.346-.307.643-.612.829a1.36 1.36 0 0 1-1.018.161zm-18.86-4.58l-9.42-2.31c-.72-.18-1.16-.9-.98-1.62s.91-1.16 1.63-.98l9.42 2.31a1.35 1.35 0 0 1 .828.606c.185.304.243.668.162 1.014a1.38 1.38 0 0 1-1.64.98zm-18.85-4.64l-9.42-2.34c-.72-.18-1.16-.91-.98-1.63s.91-1.16 1.63-.98l9.41 2.34a1.34 1.34 0 0 1 .98 1.62c-.17.72-.9 1.16-1.62.99zm-18.83-4.7l-9.42-2.37a1.34 1.34 0 0 1-.823-.614c-.181-.306-.235-.671-.147-1.016a1.34 1.34 0 0 1 1.63-.97l9.41 2.37a1.35 1.35 0 0 1 .473.225 1.33 1.33 0 0 1 .35.389c.09.151.149.319.175.493s.016.352-.028.523c-.17.71-.9 1.15-1.62.97zm-18.83-4.76l-9.4-2.39a1.34 1.34 0 0 1-.823-.614c-.182-.306-.234-.671-.147-1.016a1.34 1.34 0 0 1 1.63-.97l9.4 2.39a1.34 1.34 0 0 1 .97 1.63 1.34 1.34 0 0 1-.614.823 1.35 1.35 0 0 1-1.016.147zm-18.8-4.8l-9.39-2.43c-.71-.18-1.14-.91-.96-1.63a1.35 1.35 0 0 1 .619-.813c.305-.18.668-.233 1.011-.147l9.38 2.43c.72.18 1.15.91.96 1.63-.17.71-.9 1.14-1.62.96zm-18.77-4.89l-9.38-2.49c-.71-.19-1.14-.92-.95-1.63s.92-1.14 1.63-.95l9.37 2.48c.71.19 1.14.92.95 1.63-.17.72-.9 1.14-1.62.96zm-18.75-5l-9.37-2.53a1.32 1.32 0 0 1-.466-.23c-.138-.106-.254-.239-.342-.39a1.33 1.33 0 0 1-.132-1.01c.094-.342.319-.632.626-.809a1.34 1.34 0 0 1 1.014-.131l9.36 2.53a1.33 1.33 0 0 1 .479.222c.143.106.264.239.355.392s.15.322.174.498a1.3 1.3 0 0 1-.033.527 1.33 1.33 0 0 1-.235.473 1.31 1.31 0 0 1-.401.344c-.155.087-.326.142-.503.161s-.356.004-.526-.047zm-18.73-5.07l-9.36-2.56c-.169-.045-.327-.123-.465-.23a1.3 1.3 0 0 1-.34-.391c-.087-.152-.142-.319-.164-.492s-.008-.349.039-.517c.19-.71.93-1.13 1.64-.93l9.36 2.55a1.32 1.32 0 0 1 .466.23c.138.106.254.239.342.39a1.33 1.33 0 0 1 .132 1.01c-.21.71-.94 1.13-1.65.94zm-18.72-5.12l-9.36-2.57c-.339-.094-.627-.318-.802-.623a1.33 1.33 0 0 1-.128-1.007c.094-.339.318-.627.623-.802a1.33 1.33 0 0 1 1.007-.128l9.36 2.57c.169.045.327.123.465.23a1.3 1.3 0 0 1 .34.391 1.32 1.32 0 0 1 .164.492c.021.173.008.349-.039.517-.19.7-.92 1.12-1.63.93zm-18.72-5.14l-9.36-2.57c-.71-.19-1.12-.92-.93-1.63s.92-1.12 1.63-.93l9.36 2.57c.71.19 1.12.92.93 1.63s-.92 1.12-1.63.93zm-18.72-5.13l-9.36-2.55c-.71-.19-1.12-.92-.93-1.63s.92-1.12 1.63-.93l9.37 2.55c.71.19 1.12.92.93 1.63a1.35 1.35 0 0 1-1.64.93zm-18.72-5.1l-9.37-2.53c-.168-.044-.326-.121-.465-.227a1.32 1.32 0 0 1-.342-.387c-.087-.151-.144-.317-.167-.49a1.32 1.32 0 0 1 .034-.516c.19-.71.92-1.12 1.62-.94l9.37 2.53c.168.045.324.123.462.229a1.34 1.34 0 0 1 .339.388 1.33 1.33 0 0 1 .129 1.003c-.18.71-.9 1.13-1.61.94zm-18.74-5.03l-9.38-2.48c-.71-.19-1.13-.91-.94-1.61.18-.71.91-1.13 1.62-.94l9.38 2.48c.168.044.326.121.465.227a1.32 1.32 0 0 1 .342.387c.087.151.144.317.167.49a1.32 1.32 0 0 1-.034.516c-.045.167-.123.324-.229.462a1.34 1.34 0 0 1-.388.339 1.33 1.33 0 0 1-1.003.129zM650 669.01l-9.39-2.43c-.17-.041-.331-.116-.472-.22s-.26-.234-.35-.385-.15-.317-.175-.49a1.32 1.32 0 0 1 .028-.52c.044-.17.121-.329.227-.469a1.3 1.3 0 0 1 .39-.344c.151-.088.319-.145.493-.168a1.32 1.32 0 0 1 .519.036l9.4 2.43c.168.043.326.119.465.223a1.32 1.32 0 0 1 .344.385c.088.149.146.315.17.487s.015.347-.029.515c-.19.71-.91 1.13-1.62.95zm-18.79-4.83l-9.41-2.36a1.32 1.32 0 0 1-.96-1.6 1.32 1.32 0 0 1 1.6-.96l9.42 2.36c.71.18 1.14.89.96 1.6s-.9 1.14-1.61.96zm-18.82-4.67l-9.42-2.28c-.71-.17-1.15-.88-.98-1.58.17-.71.88-1.14 1.59-.98l9.44 2.28c.71.17 1.14.88.97 1.59-.17.7-.89 1.14-1.6.97zM593.53 655l-9.44-2.18c-.168-.038-.327-.109-.468-.208s-.261-.226-.353-.371-.154-.309-.183-.479-.024-.344.014-.512a1.32 1.32 0 0 1 .585-.822c.297-.185.654-.246.995-.168l9.46 2.18a1.32 1.32 0 0 1 .99 1.58c-.17.71-.88 1.15-1.6.98zm-18.89-4.3l-9.47-2.07c-.71-.15-1.16-.85-1.01-1.56s.85-1.16 1.56-1.01l9.48 2.07a1.3 1.3 0 0 1 .47.205 1.32 1.32 0 0 1 .357.369c.093.146.157.308.187.478s.028.344-.009.513a1.3 1.3 0 0 1-.205.47 1.32 1.32 0 0 1-.369.357c-.146.093-.308.157-.478.187s-.344.028-.513-.009zm-18.95-4.07l-9.49-1.94c-.169-.034-.329-.1-.472-.195s-.266-.219-.362-.362a1.31 1.31 0 0 1-.196-.472 1.33 1.33 0 0 1 0-.511 1.32 1.32 0 0 1 1.55-1.03l9.51 1.94c.71.14 1.17.84 1.02 1.55s-.84 1.17-1.56 1.02zm-19-3.82l-9.52-1.8h-.01c-.169-.032-.329-.097-.473-.192s-.267-.216-.364-.358-.164-.301-.199-.47-.036-.341-.004-.51.097-.33.192-.473.216-.267.358-.364.301-.164.47-.199.341-.036.51-.004l9.54 1.8a1.3 1.3 0 0 1 .475.19c.144.094.268.215.365.358a1.3 1.3 0 0 1 .198.471c.035.168.035.342.002.511a1.3 1.3 0 0 1-.193.475c-.095.145-.218.269-.361.365a1.32 1.32 0 0 1-.986.2zm-19.06-3.53l-9.55-1.71a1.32 1.32 0 0 1-1.06-1.52 1.32 1.32 0 0 1 1.52-1.06l9.55 1.71c.71.13 1.19.8 1.06 1.52-.12.71-.8 1.19-1.52 1.06zm-19.09-3.43l-9.55-1.7a1.3 1.3 0 0 1-.476-.183 1.31 1.31 0 0 1-.368-.351c-.099-.141-.169-.299-.206-.467a1.3 1.3 0 0 1-.01-.509c.12-.71.8-1.19 1.52-1.06l9.55 1.7a1.32 1.32 0 0 1 1.06 1.52c-.13.71-.81 1.18-1.52 1.05zm-19.1-3.36l-9.56-1.61c-.71-.11-1.2-.78-1.08-1.49.11-.71.79-1.19 1.5-1.08l9.58 1.61c.71.12 1.19.79 1.07 1.5s-.79 1.19-1.51 1.07zm-19.12-3.14l-9.58-1.44h-.01a1.3 1.3 0 0 1-.851-.514c-.205-.278-.291-.625-.239-.966.11-.71.77-1.2 1.48-1.1l9.61 1.44c.71.11 1.2.77 1.1 1.48-.11.71-.77 1.2-1.48 1.1h-.03zm-19.18-2.76l-9.61-1.19h-.02c-.71-.09-1.22-.74-1.13-1.45s.74-1.22 1.45-1.13l9.65 1.19c.71.09 1.22.74 1.13 1.45s-.74 1.22-1.45 1.13h-.02zm-19.23-2.22l-9.64-.86h-.03c-.71-.06-1.24-.69-1.18-1.41.06-.71.69-1.24 1.41-1.18l9.69.86c.343.03.661.196.882.461s.329.605.298.949-.196.661-.461.882-.606.328-.949.298h-.02zm-19.29-1.53l-9.66-.44h-.03c-.171-.008-.338-.049-.493-.122a1.29 1.29 0 0 1-.409-.301 1.3 1.3 0 0 1-.338-.937c.03-.72.64-1.27 1.35-1.24l9.72.44c.345.016.669.168.902.423s.354.592.338.937-.168.669-.423.902-.592.354-.937.338h-.02zm-19.33-.64l-9.66.07h-.04c-.72.01-1.3-.57-1.3-1.29-.01-.72.57-1.3 1.29-1.3l9.74-.07c.72-.01 1.3.57 1.31 1.29 0 .72-.57 1.3-1.29 1.31l-.05-.01zm-19.31.43l-9.63.68h-.05c-.71.05-1.33-.49-1.38-1.2s.49-1.33 1.2-1.38l9.72-.69c.71-.05 1.33.49 1.38 1.2s-.49 1.33-1.2 1.38l-.04.01zm-19.23 1.72l-9.55 1.4-.05.01c-.71.1-1.36-.38-1.47-1.09-.1-.71.38-1.36 1.09-1.47l9.65-1.42c.71-.1 1.36.38 1.47 1.09.1.71-.38 1.36-1.09 1.47l-.05.01zm-19.02 3.2l-9.38 2.22-.06.01c-.69.16-1.39-.26-1.55-.96-.16-.69.26-1.39.96-1.55l9.49-2.25c.69-.16 1.39.26 1.55.96.16.69-.26 1.39-.96 1.55l-.05.02zm-18.64 4.89l-9.11 3.13-.06.02c-.67.23-1.41-.13-1.64-.8s.13-1.41.8-1.64l9.23-3.17c.67-.23 1.41.13 1.64.8s-.13 1.41-.8 1.64l-.06.02zm-18.04 6.73l-8.72 4.08-.06.03c-.309.143-.662.159-.983.043s-.582-.355-.727-.663-.159-.663-.043-.983.355-.582.663-.727l8.85-4.14a1.29 1.29 0 0 1 1.71.62 1.29 1.29 0 0 1-.62 1.71l-.07.03zm-17.2 8.63l-8.22 5.02-.06.04c-.61.37-1.4.18-1.77-.43-.177-.292-.231-.642-.151-.974a1.29 1.29 0 0 1 .581-.796l8.34-5.1c.61-.37 1.4-.18 1.77.43s.18 1.4-.43 1.77l-.06.04zm-16.14 10.49l-7.52 5.98-.07.06c-.55.44-1.36.35-1.8-.21-.44-.55-.35-1.36.21-1.8l7.67-6.1c.55-.44 1.36-.35 1.8.21.44.55.35 1.36-.21 1.8l-.08.06zm-14.59 12.49l-6.62 6.97-.06.06a1.29 1.29 0 0 1-.895.396c-.338.009-.667-.115-.915-.346a1.29 1.29 0 0 1-.396-.895c-.009-.338.115-.667.346-.915l6.74-7.1a1.29 1.29 0 0 1 .895-.396c.338-.009.667.115.915.346a1.29 1.29 0 0 1 .396.895c.009.338-.115.667-.346.915l-.06.07zm-12.79 14.35l-5.7 7.76-.05.06c-.1.135-.225.249-.369.336a1.28 1.28 0 0 1-.47.17 1.27 1.27 0 0 1-.499-.024c-.163-.04-.317-.112-.452-.212s-.25-.225-.336-.369a1.28 1.28 0 0 1-.17-.47 1.27 1.27 0 0 1 .024-.499c.04-.163.112-.317.212-.452l5.79-7.88c.1-.135.225-.25.369-.336a1.28 1.28 0 0 1 .47-.17 1.27 1.27 0 0 1 .499.024c.163.04.317.112.452.212s.25.225.336.369a1.28 1.28 0 0 1 .17.47 1.27 1.27 0 0 1-.024.499c-.04.163-.112.317-.212.452l-.04.06zm-10.9 15.85l-4.7 8.4-.04.07a1.28 1.28 0 0 1-.324.379 1.27 1.27 0 0 1-.942.265c-.166-.02-.328-.072-.474-.154a1.28 1.28 0 0 1-.379-.324c-.104-.132-.181-.283-.226-.445s-.059-.33-.039-.497.072-.328.154-.474l4.78-8.54a1.27 1.27 0 0 1 .324-.379c.132-.104.283-.181.445-.226s.33-.059.497-.039.328.072.474.154a1.28 1.28 0 0 1 .379.324 1.27 1.27 0 0 1 .265.942 1.27 1.27 0 0 1-.154.474l-.04.07zm-8.86 17.07l-3.58 8.92-.03.08c-.26.65-1.01.97-1.66.71s-.97-1.01-.71-1.66l3.65-9.08c.26-.65 1.01-.97 1.66-.71s.97 1.01.71 1.66l-.04.08zm-6.55 18.07l-2.29 9.33-.02.09c-.17.68-.86 1.1-1.54.93s-1.1-.86-.93-1.54l2.33-9.52c.17-.68.86-1.1 1.54-.93s1.1.86.93 1.54l-.02.1zm-3.84 18.8l-.75 9.56-.01.11c-.05.7-.67 1.22-1.37 1.17s-1.22-.67-1.17-1.37l.76-9.78c.05-.7.67-1.22 1.37-1.17s1.22.67 1.17 1.37v.11zm-.61 19.14l.44 4.77.58 4.77.01.06c.08.7-.41 1.33-1.11 1.41s-1.33-.41-1.41-1.11l-.59-4.86c-.23-1.61-.3-3.26-.45-4.89-.03-.336.074-.669.289-.928a1.27 1.27 0 0 1 .861-.452c.336-.031.669.073.928.289a1.27 1.27 0 0 1 .452.861v.08zm2.76 18.99l2.54 9.24.03.11c.19.67-.21 1.37-.89 1.56s-1.37-.21-1.56-.89l-2.6-9.47c-.19-.68.21-1.37.89-1.56s1.37.21 1.56.89l.03.12zm5.96 18.18c1.3 2.91 2.76 5.75 4.39 8.48.087.143.144.301.169.467a1.27 1.27 0 0 1-.239.943 1.27 1.27 0 0 1-.37.33c-.289.172-.635.222-.961.14s-.606-.291-.779-.58c-1.69-2.82-3.2-5.75-4.54-8.75a1.28 1.28 0 0 1-.111-.484 1.26 1.26 0 0 1 .083-.489 1.27 1.27 0 0 1 .263-.42c.115-.121.253-.219.405-.287a1.29 1.29 0 0 1 .978-.021c.316.121.572.362.712.671zm9.85 16.24c2.03 2.41 4.29 4.65 6.7 6.72.53.46.59 1.25.14 1.78-.46.53-1.25.59-1.78.14-2.5-2.15-4.85-4.47-6.99-7-.45-.54-.38-1.33.15-1.79.52-.46 1.32-.39 1.78.15zm14.32 12.45l8.24 4.88.1.06a1.28 1.28 0 0 1 .366.329 1.27 1.27 0 0 1 .212.445c.041.16.05.328.026.492s-.079.321-.164.464a1.28 1.28 0 0 1-.329.366 1.27 1.27 0 0 1-.445.212c-.16.041-.328.05-.492.026s-.321-.079-.464-.164l-8.45-5.01a1.27 1.27 0 0 1-.366-.33c-.099-.132-.171-.283-.212-.444s-.05-.328-.026-.492.079-.322.164-.464.197-.267.329-.366a1.27 1.27 0 0 1 .445-.212c.161-.041.328-.05.492-.026a1.24 1.24 0 0 1 .464.164l.11.07zm16.89 9.02l8.96 3.48.08.03a1.26 1.26 0 0 1 .415.264 1.25 1.25 0 0 1 .283.402c.066.151.103.314.107.48a1.25 1.25 0 0 1-.085.484 1.26 1.26 0 0 1-.264.415 1.25 1.25 0 0 1-.402.283c-.151.066-.314.103-.48.107a1.27 1.27 0 0 1-.484-.085l-9.12-3.54a1.26 1.26 0 0 1-.72-1.63 1.26 1.26 0 0 1 1.63-.72l.08.03zm18.14 6.36l9.35 2.31.07.02c.68.17 1.09.85.92 1.53s-.85 1.09-1.52.92l-9.5-2.34c-.68-.17-1.09-.85-.92-1.53s.85-1.09 1.53-.92l.07.01zm18.82 4.04l9.55 1.14.08.01c.331.04.633.21.84.472a1.26 1.26 0 0 1 .26.928c-.04.331-.21.633-.472.84s-.596.299-.928.26l-9.72-1.16a1.26 1.26 0 0 1-1.1-1.4c.04-.331.21-.633.472-.84a1.26 1.26 0 0 1 .928-.26l.09.01zm19.15 1.61l9.58-.36h.13c.69-.03 1.28.51 1.3 1.21.03.69-.51 1.28-1.21 1.3l-9.82.37c-.69.03-1.28-.51-1.3-1.21-.03-.69.51-1.28 1.21-1.3l.11-.01zM2004.25 206.7l-19.62 32.76-13.75-27.37 33.37-5.39z" class="F"/><path d="M1868.2 99.69l41.99 130.57c.8 2.5 2.59 4.57 4.95 5.72 2.36 1.16 5.09 1.3 7.55.4l129.51-47.1a3.94 3.94 0 0 0 1.81-1.361 3.92 3.92 0 0 0 .74-2.139c.06-1.58-.85-3.03-2.29-3.67L1868.2 99.69z" class="M"/><g class="F"><path d="M2004.23 206.7L1868.2 99.69l115.16 114.68-5.06 9.31 25.93-16.98z"/><path d="M1970.94 218.82l13.69 20.64-1.27-25.09-12.42 4.45z"/></g><path d="M965.28 1393.43s-2.34 12.57-3.55 25.03c-.47 4.87 3.24 9.13 8.13 9.38 16.59.85 52.09 2.53 64.83 2.09a2.78 2.78 0 0 0 1.26-.36 2.76 2.76 0 0 0 .96-.9c.25-.37.4-.79.45-1.24.05-.44-.01-.88-.17-1.3-.58-1.5-1.71-2.72-3.17-3.4l-58.39-27.52-10.35-1.78z" class="D"/><path d="M963.53 1386.02l1.64 15.08s10.23 4.88 17.3-.44l-4.09-16.83-14.85 2.19z" class="B"/><path d="M897.75 1399.36s-3.6 6.32-7.19 23.18a5.27 5.27 0 0 0-.006 2.18 5.25 5.25 0 0 0 .878 1.99c.429.6.978 1.09 1.611 1.46a5.09 5.09 0 0 0 2.067.69c5.48.59 13.91 1.36 20.67 1.38 3.12.01 5.57-2.68 5.23-5.78-.69-6.17-2.93-16.31-10.06-24.26l-13.2-.84z" class="D"/><path d="M894.83 1379.96l3.96 22.82s4.1 3.11 12.29.96l-1.76-24.53-14.49.75z" fill="url(#I)"/><g fill="#1a60c6"><path d="M967.58 1102.86c-.81 3.93-6.02 196.24 13.72 282.64.32 1.41-.4 2.85-1.75 3.39-3.17 1.26-9.37 3.07-16.78 3.24-2.29.06-4.34-1.46-4.96-3.66-5.69-20.06-32.89-120.53-35.65-216.28-3.08-107 .03-3.64.03-3.64l3.04-66.09 42.35.4z"/><path d="M886.14 1107.99c-17.78 101.32 1.25 250.86 7.88 280.16.198.88.649 1.68 1.298 2.3a4.59 4.59 0 0 0 2.352 1.2c3.08.54 8.14 1.01 13.16-.4 1.73-.48 2.95-2.03 3.04-3.82 1.15-23.62.87-168.71 17.08-225.9.82-2.9 2.62-5.42 5.09-7.14l30.62-21.33 2.67-34.92-83.19 9.85z"/></g><g class="E"><path d="M995.13 916.72c-50.39-1.31-106.12 12.22-106.12 12.22-15.86 87.51-4.43 188.72-4.43 188.72 38.92 10.6 83.08-5.46 83.08-5.46 6.83-36.57 38.07-139.39 38.07-139.39 24.65-2.82 45-9.73 61.8-18.96-12.6-14.89-18.43-33.74-20.93-44.87-17.88 5.36-35.93 8.14-51.47 7.74z"/><path d="M1144.69 843.91c-4.89-6.03-11.19-3.26-11.19-3.26-7.71 31.25-46.84 56.28-86.91 68.32 2.5 11.13 8.33 29.98 20.93 44.87 66.66-36.64 77.17-109.93 77.17-109.93z"/></g><path d="M1143.47 845.42c.5 1.65-5.52 4.1-8.99-2.67-.09-3.23-1.92-17.08.03-19.69 10.41-13.91 30.49-31.27 30.49-31.27 3.33 3.35.53 6.59.53 6.59l-9.76 9.97c1.99 3.67 4.42 6.78 5.53 11.21.84 3.35.27 6.92-1.44 9.95-1.73 3.04-4.08 6.99-6.29 10.08-4.19 5.84-10.1 5.83-10.1 5.83z" class="B"/><path d="M1151.49 814.85l-8.88 7.38-2.84 7.4 7.77 8.78s2.78-14.72 4.77-17.89c2-3.17 1-4.72-.82-5.67z" class="C"/><path d="M907.87 977.92l-18.86-48.98s-47.38 31.53-55.5 72.01c8.89.74 25.05 3.21 40.81 11.36 3.66-19.12 33.55-34.39 33.55-34.39z" class="E"/><g class="B"><path d="M948.56 1024.23s-53.13 29.36-70.72 3.69c-3.65-5.33-4.49-10.6-3.53-15.61-15.77-8.15-31.93-10.62-40.81-11.36-2.45 12.2-1.34 25.22 5.72 38.42 30.69 57.44 116.22-2.05 116.22-2.05l-6.88-13.09zm-4.09-148.91l-16.48 46.22c-.27.77.03 1.62.74 2.02 4.35 2.46 20.03 9.59 39.12-2.26 1.99-1.23 3.35-3.27 3.68-5.58l5.58-40.08-32.64-.32z"/></g><path d="M979.77 832.71s17.29 33.31 14.91 46.68-24.2 12.2-43.15 1.14l-12.97-35.92 41.21-11.9z" class="C"/><path d="M952.54 862.97c.78-.34 1.07-1.28.62-1.99-1.39-2.17-3.99-6.59-4.8-10.45 0 0-3.15-2.06 8.1-4.64s28.02-6.59 31.63-16.11c3.52-9.28-5.27-32.79-19.82-14.26-.55.7-1.62.71-2.16-.01-2.33-3.09-8.46-9.52-17.1-5.74-8.08 3.54-9.05 9.42-8.96 12.4.02.87-.76 1.55-1.62 1.38-4.06-.82-13.82-1.57-18.48 8.4-3.83 8.22-1.44 12.91.76 15.22.71.75.39 1.96-.6 2.26-2.68.79-6.16 3.03-5.87 9.3.4 8.67 10.09 8 12.85 7.63.45-.06.91.1 1.21.44 2.34 2.64 12.89 13.85 24.4 15.3 1 .13 1.78-.85 1.46-1.81l-4.85-14.55c-.23-.68.1-1.41.76-1.69l2.47-1.08z" fill="url(#J)"/><path d="M954.52 865.04s-12.45-8.72-13.44-1.49c-.98 7.23 11.19 10.6 17.26 7.96l-3.82-6.47z" class="C"/><path d="M937.7 1070.63l28.94-101.08c.16-.56.481-1.059.924-1.437a2.95 2.95 0 0 1 1.566-.683c12.64-1.461 25.302-2.731 37.98-3.81 21.13-1.79 45.68-3.24 60.34-2a2.99 2.99 0 0 1 1.35.458 2.95 2.95 0 0 1 .98 1.034c.24.42.37.891.39 1.373.01.483-.09.961-.3 1.395-8.34 16.87-42.64 85.5-59.82 107.99a2.99 2.99 0 0 1-1.06.87c-.41.2-.87.3-1.33.3l-67.15-.62c-.456-.01-.903-.12-1.308-.33s-.757-.51-1.028-.87c-.272-.37-.455-.79-.538-1.24a2.99 2.99 0 0 1 .064-1.35z" class="D"/><path d="M944.7 1046.21s-4.03-16.58-2.41-22.46c1.63-5.88 4.78-13.44 15.28-11.76s22.89 6.11 22.89 6.11-.63 7.66-8.61 5.19l4.95 3.83s-.71 6.13-7.45 2.86l4.6 5.08s-2.9 5.04-7.86 1.81c-4.95-3.25-7.33 11.34-21.39 9.34z" class="B"/><g class="G"><path d="M1005.19 993.79c0 2.254.9 4.416 2.49 6.01a8.5 8.5 0 0 0 6.01 2.49c2.25 0 4.42-.9 6.01-2.49a8.51 8.51 0 0 0 2.49-6.01c0-2.254-.9-4.416-2.49-6.01a8.5 8.5 0 0 0-6.01-2.49c-2.25 0-4.41.899-6.01 2.492-1.59 1.594-2.49 3.755-2.49 6.008zm-377.81 288.48c-3.09 4.57-15.35 107.93-17.27 146.11-.13 2.58 1.94 4.73 4.52 4.73 2.23 0 4.13-1.62 4.47-3.83l22.43-143.73-14.15-3.28zm98.59 0c3.09 4.57 15.35 107.93 17.27 146.11.03.61-.065 1.22-.279 1.8-.214.57-.542 1.09-.965 1.54-.423.44-.932.79-1.495 1.03a4.54 4.54 0 0 1-1.781.36c-2.23 0-4.13-1.62-4.47-3.83l-22.43-143.73 14.15-3.28z"/><path d="M608.83 1274.2l-.01 1.13c-.07 8.11 6.91 14.76 15.66 14.91l103.67 1.76c8.62.15 15.81-6.08 16.23-14.07l.05-1.03c.44-8.33-6.63-15.34-15.63-15.5l-103.72-1.86c-8.87-.16-16.18 6.43-16.25 14.66z"/></g><path d="M827.21 1424.62c-18.43 0-26.58-1.58-30.23-3.02.71 3.03 3.4 5.42 6.81 5.42h65.2c2.2 0 3.58-2.1 3.06-4-7.43.59-23.22 1.6-44.84 1.6z" class="F"/><path d="M872.05 1423.01c-.11-.38-.26-.76-.53-1.11-4.97-6.34-14.94-16.3-28.51-16.11-19.88.28-26.81 2.44-42.26.12L797.1 1418c-.37 1.23-.38 2.46-.11 3.6 3.65 1.44 11.8 3.02 30.23 3.02 21.61 0 37.4-1.01 44.83-1.61z" class="D"/><path d="M805.21 1392.9l-4.47 15.22s9.91 4.51 18.63.89l1.71-13.18-15.87-2.93z" class="B"/><path d="M940.34 1415.04c-14.37 11.54-21.71 15.42-25.45 16.59 2.44 1.9 6.03 2.07 8.68-.06l50.82-40.84c1.71-1.38 1.48-3.87-.11-5.02-5.41 5.12-17.09 15.79-33.94 29.33z" class="F"/><path d="M974.29 1385.71c-.32-.23-.68-.43-1.11-.53-7.82-1.81-21.81-3.29-32.27 5.36-15.32 12.67-19.38 18.68-32.87 26.56l4.69 11.66c.48 1.19 1.24 2.15 2.16 2.87 3.74-1.16 11.08-5.05 25.45-16.59 16.85-13.54 28.53-24.21 33.95-29.33z" class="D"/><path d="M709.51 1219.54s110.34 9.01 132.97 19.66c22.63 10.66-18.47 159.99-18.47 159.99s-6.16 2.97-19.87-1.3c0 0 14.06-110.21 3.6-134.1l-119.46-19.54 21.23-24.71z" fill="#e1473d"/><path d="M897.08 1396.13c1.02.93 10.96 20.98 10.96 20.98s11.06-2.39 13.32-9.4l-9.96-18.09-14.32 6.51z" class="B"/><path d="M643.06 1218.62s-3.6 8.65-3.45 20.15c.2 15.9 12.99 28.8 28.87 29.6l130.43 5.95c1.339.06 2.622.55 3.662 1.4a6.29 6.29 0 0 1 2.118 3.3c3.06 11.86 18.05 48.26 91.28 120.91a5.86 5.86 0 0 0 3.511 1.67c1.325.15 2.66-.16 3.789-.87l10.43-6.59c1.09-.69 1.44-2.13.79-3.24l-75.95-129.69c-3.99-6.58-10.4-11.34-17.86-13.24l-111.17-28.42-66.45-.93z" fill="#e9605a"/><path d="M771.6 1016.04s-13.97 24.71-28.22 36.67l29.45 16.43s6.64-26.15 21.79-33.81l-23.02-19.29z" class="B"/><path d="M640.69 1219.54s35.21 8.58 68.82 0c0 0 47.03-63.22 65.23-80.43 0 0 29.02 45.8 93.62 52.29l3.6-8.05s-51.43-23.71-67.26-60.13c-15.83-36.43-22.19-51.96-36.6-61.47-8.97-5.92-14.34-9.96-17.12-12.17-1.52-1.21-3.62-1.35-5.28-.34-15.27 9.32-87.2 58.58-105.01 170.3z" fill="#408ee2"/><path d="M772.83 1138.22c-.68 0-1.35-.3-1.79-.88-11.21-14.62-17.46-30.74-17.72-31.42-.45-1.16.13-2.47 1.3-2.92s2.47.13 2.92 1.3c.06.16 6.29 16.2 17.09 30.29.76.99.57 2.41-.42 3.17-.399.3-.883.46-1.38.46z" fill="#0965b9"/><path d="M864.48 1179.15l7.27-1.94 22.08-5.11c2.66-.62 5.45-.14 7.76 1.31l18.98 11.94-52.42-.09-3.67-6.11z" class="B"/><path d="M793.79 978.99s13.58 22.57 15.94 35.05 6.14 20.28-8.06 24.72c-14.2 4.45-27.4-1.18-35.68-12.83 0 0-12.93-17.92-11.64-26.13 1.28-8.2 39.44-20.81 39.44-20.81z" class="C"/><path d="M769.76 1016.28l1.84-.24s-9.62-14.53-3.32-18.13c6.29-3.6 31.93-12.45 36.38-22.55 4.29-9.73-2.13-20.73-9.87-23.03-.49-.15-1.01.14-1.18.62l-.45 1.23c-.31.84-1.49.87-1.85.05-.34-.78-1.45-.81-1.8-.04-1.37 3.03-5.48 8.19-17.81 12.19-17.5 5.67-28.39 14.49-27.05 26.92.08.79-.7 1.33-1.42 1.01-1.43-.63-3.6-.73-6.12 2.02-4.38 4.79-.95 15.26 11.01 22.67.57.35.67 1.15.16 1.59-1.79 1.53-4.31 4.95 3.78 7.99 8.28 3.11 12.79 2.06 14.46 1.39.45-.18.71-.64.61-1.12l-2.13-10.89c-.11-.56.28-1.1.85-1.18l3.91-.5z" fill="url(#K)"/><path d="M770.52 1018.52s-5.99-14.77-12.29-9.58c-6.29 5.19 5.82 16.67 11.41 16.52l.88-6.94z" class="C"/><g class="H"><path d="M844.22 1195.63l.26.01 111.99-.11c2.77 0 5.01-2.24 5.01-5.01 0-2.76-2.26-5.05-5.02-5l-111.99.11c-2.77 0-5.01 2.24-5.01 5.01.001 1.28.496 2.52 1.382 3.45s2.096 1.48 3.378 1.54z"/><path d="M999.84 1085.96l-.11.23-47.12 101.59c-.278.6-.436 1.24-.464 1.9a5.01 5.01 0 0 0 .299 1.93c.226.62.572 1.18 1.017 1.67.445.48.981.87 1.578 1.15 2.51 1.16 5.53.08 6.65-2.44l47.12-101.59c.28-.6.44-1.24.46-1.9.03-.66-.07-1.31-.3-1.93-.22-.62-.57-1.18-1.01-1.67a5.14 5.14 0 0 0-1.58-1.15c-1.17-.54-2.49-.61-3.71-.2a4.99 4.99 0 0 0-2.83 2.41z"/></g><g class="G"><path d="M1281.28 1297.73h11.82v127.83h-11.82v-127.83z"/><path d="M1338.95 1428.02h-103.53c0-2.04.81-4 2.25-5.44s3.4-2.25 5.44-2.25h88.14a7.87 7.87 0 0 1 2.95.58 7.63 7.63 0 0 1 2.49 1.67c.72.71 1.29 1.56 1.67 2.49a7.69 7.69 0 0 1 .59 2.95zm15.37-134.72c0 6.99-5.72 12.71-12.71 12.71h-104.74c-6.99 0-12.71-5.72-12.71-12.71v-11.49c0-6.99 5.72-12.71 12.71-12.71h104.74c6.99 0 12.71 5.72 12.71 12.71v11.49z"/></g><path d="M1199.93 1212.5s-17.56 2.72-37.31 15.92c-3.11 2.08-4.81 5.7-4.34 9.41 2.36 18.73 12.09 79.35 44.15 138.57 1.69 3.12 2.18 6.76 1.43 10.23l-5.57 25.92-10.33 9.69h26.61l17.71-47.94-7.57-2.4c-5.87-1.86-9.9-7.26-10.01-13.42l-.89-51.43c.76-22.91-14.05-38.72-14.05-38.72l42.49-2.07-42.32-53.76z" class="B"/><path d="M1177.56 1426.91c-2.42 3.17 26.08 7.36 40.48.42 0 0 19.96-34.73 19.96-52.61 0 0-1.58-3.65-13.3-2.82 0 0-6.7 41.12-13.78 45.73s-19.8.47-19.8.47-9.98 4.13-13.56 8.81z" class="G"/><path d="M1236.86 1269.09c-.23-.39-45.75-5.47-45.75-5.47s1.49 13.84-3.17 32.89-71.49 101.6-71.49 101.6l7.01 22.22c-21.67 7.55-42.98 8.75-63.95 3.85l43.43-26.06s40.65-138.51 65.54-163.22l45.63-15.79 22.75 49.98z" class="C"/><path d="M1338.95 1188.5s26.23 39.01 28.38 56.8-7.18 25.02-34.7 26.22-100.98 1.17-100.98 1.17l-62.7-53.59 57.57-20.91c11.88-4.61 112.43-9.69 112.43-9.69z" fill="#ffd19f"/><path d="M1120.82 1412.85s7.54 7.31 2.45 15.44c0 0-59.77 10.59-75.99 5.79 0 0 3.37-7.69 21.64-16.44l-1.35 1.03c-1.71 1.31-.71 4.04 1.44 3.92 12.04-.7 36.96-2.9 51.81-9.74z" class="G"/><path d="M1225.35 941.11c53.61-9.11 78.85 34.61 77.01 43.8-.24 1.22.9 2.25 2.1 1.93 6.15-1.66 19.75-3.75 28.18 6.82 7.44 9.32 1.88 18.12-2.65 22.95-1.09 1.17-.17 3.06 1.41 2.86 11.32-1.43 35.91-1.77 39.93 21.26 3.75 21.48-11.2 27.54-20.07 29.25-1.5.29-1.85 2.26-.56 3.08 4.42 2.81 9.55 8.6 7.48 20.05-3.25 17.94-38.41 16.47-42.52 16.24-.26-.01-.51-.09-.73-.22L1258.6 1077c-.44-.25-.74-.68-.83-1.18l-11.37-65.68c-.05-.26-.03-.53.05-.78.08-.26.21-.49.4-.68l-36.72-51.82c-13.34-1.97 14.58-15.65 15.22-15.75z" class="H"/><path d="M1268.02 1183.33s-30.54-29.08-45.57-48.34c-8.13-10.41-10.68-24.12-6.92-36.78 6.86-23.12 19.06-47.07 20.17-50.8 1.7-5.71 35.95-5.48 35.95-5.48s67.39 43.73 93.86 117.82l-29.73 9.26s-17.59-29.52-34.98-48.29c0 0 30.08 39.74 31.14 56.01l-63.92 6.6z" fill="url(#L)"/><path d="M1231.56 1015.47c.36 1.19 9.3 30.82 9.99 31.43.7.62 19.6 1.63 28.5-4.45l-22.07-43.17-16.42 16.19z" class="B"/><path d="M1195.73 977.4s-4.32 16.97 7.63 39.8 25.48 22.81 32.88 15.5 16.52-19.71 14.35-41.78-48.62-35.11-54.86-13.52z" class="C"/><path d="M1234.05 992.12s-19.83-30.31-38.42-6.46l-.34 8.68s-21.78-2.58-17.97-22.55 22.63-32.45 46.87-23.8 38.13 17.52 39.69 34.89-12.25 13.56-12.25 13.56-4.51-12.23-10.92-13.5-4.74 8.27-4.74 8.27l-1.92.91z" class="H"/><g class="C"><path d="M1242.5 998.66s-10.28-15.52.25-17.84c10.54-2.31 8.9 15.12 7.76 21.58l-8.01-3.74zm-36.7 186.83l22.44-21.63 31.04 13.11s30.9 4.79 48.58 0l17.68-4.79 39.96-12.44 6.28 17.74c1.59 4.5-.01 9.5-3.9 12.27-3.46 2.46-7.51 5.16-10.09 6.29-5.26 2.3-129.73-1.59-129.73-1.59l-22.26-8.96z"/></g><g class="D"><path d="M1290.72 1195.69l-.3.01-130.17-.14c-3.22 0-5.82-2.61-5.82-5.83s2.62-5.88 5.83-5.82l130.17.14c3.22 0 5.82 2.61 5.82 5.83 0 1.49-.58 2.93-1.61 4.01a5.84 5.84 0 0 1-3.92 1.8z"/><path d="M1043.24 1077.5h108.4a20.69 20.69 0 0 1 11.06 3.21c3.31 2.1 5.96 5.1 7.63 8.64l50.11 106.27h-134.72c-5.15 0-9.78-3.15-11.68-7.94l-38.86-98.33c-2.23-5.69 1.95-11.85 8.06-11.85z"/></g><path d="M1119.61 1131.99c2.35 7.3.61 14.39-3.88 15.83-4.49 1.45-10.03-3.3-12.38-10.6s-.61-14.39 3.88-15.83 10.04 3.3 12.38 10.6z" class="M"/><path d="M1439.12 1411.91s1.37 7.59 1.91 16.59c.11 1.85-.5 3.66-1.7 5.07s-2.9 2.29-4.74 2.47c-13.32 1.29-43.65 3.68-63.01.88-2.71-.39-3.79-3.72-1.79-5.59 7.98-7.44 27.27-21.91 59.01-25.07l10.32 5.65z" class="D"/><path d="M1445.74 1394.81l-6.74 16.51c-.92 2.26-3.22 3.67-5.65 3.41-1.65-.17-3.6-.49-5.5-1.07-3.8-1.15-5.95-5.18-4.81-8.99l5.08-17.01 17.62 7.15z" class="B"/><path d="M1560.91 1425.06s-13.49 11.29-18.74 25.76c-1.45 3.98 1.61 8.18 5.85 8.18h27.76c4.06 0 7.18-3.65 6.47-7.66-1.78-9.99-6.88-26.24-21.34-26.28z" class="D"/><path d="M1577.62 1410.37l-4.82 20.03c-.38 1.45-1.92 2.24-3.33 1.74-4.2-1.5-7.62-2.17-10.1-1.83-1.15.15-2.15-.8-2.17-1.96l-.26-20.03 20.68 2.05z" class="B"/><path d="M1505.88 1139.01l-82.05 250.3s15.74 10.31 23.23 9.88l97.45-201.16s17.05 123.95 8.79 212.93l27.91 2.13s45.39-227.4 11.01-305.29l-86.34 31.21z" class="D"/><path d="M1543.99 1195.86c.03 0 .07 0 .1-.01.44-.06.74-.45.69-.89l-3.18-25.27a.84.84 0 0 0-.3-.53c-.17-.13-.38-.19-.59-.16-.44.06-.74.45-.69.89l3.18 25.27c.06.41.4.7.79.7z" class="G"/><path d="M1490.5 918.75s66.47 5.9 57.07 53.27c0 0 36.74 69.15 53.92 150.61.56 2.65-1.22 5.24-3.89 5.69l-110.7 18.95c-3.05.52-6-1.38-6.77-4.38l-26.45-102.22-10.31 47.53-32.75-8.53 27.57-139.66c0-.01 3.85-20.38 52.31-21.26z" fill="#b9a59e"/><path d="M1453.12 1036.1c.06 0 .12-.01.18-.02.21-.05.4-.18.52-.36.11-.18.15-.41.11-.62l-9.23-42.37a.85.85 0 0 0-.36-.516.83.83 0 0 0-.62-.114c-.21.048-.4.178-.52.361a.89.89 0 0 0-.11.619l9.23 42.37c.08.38.42.65.8.65z" fill="#7a7c4c"/><g class="C"><path d="M1459.8 1162.18c3.49-1.92 7.57-2.45 11.43-1.49l7.7 1.92c1.64.41 3.26-.72 3.45-2.4l7.97-70.94c9.97 4.73 24.34 4.17 29.09 3.82l-18.34 83.64h-64.19l22.89-14.55zm-170.57-153.88l1.94-6.45c1.12-3.71 3.86-6.71 7.46-8.16l35.09-14.11s.53-4.5-7.41-7.56-6.09-11.96-6.09-11.96 10.85 4.95 26.74 12.8c9.09 4.49 14.19 12.42 16.89 18.39l79.52 96.94-9.34 6.41c-12.28 8.44-29.16 4.29-36.14-8.87l-43.08-82.61c-21.62 6.51-43.5 7.75-65.58 5.18zm179.73-134.77l20.45 57.22s-18.1 14.15-31.32 9.37l-10.3-32.8s7.87-40.09 21.17-33.79z"/><path d="M1407.94 852.98c0 .88 19.69 55.75 19.69 55.75l31.09-11.91-10.94-54.78c.01 0-39.84-3.82-39.84 10.94zm55.2 28.48s-8.31-15.73-2.82-20.66c5.5-4.94 14.81-4.13 14.56 8.17-.31 15.29-11.74 12.49-11.74 12.49z"/></g><path d="M1442.34 855.39l8.02 28.39c.1.36.16.73.16 1.11 0 2.32-.57 10.28-8.68 9.2-7.36-.98-14.1-1.77-18.38.25-.93.437-1.66 1.204-2.05 2.15s-.42 2.006-.07 2.97c1.79 4.98 6.03 16.14 11.2 25.28 1.05 1.85 3.35 2.57 5.29 1.69 5.84-2.66 18-8.6 26.66-15.68 1.17-.96 1.74-2.47 1.46-3.96-1.36-7.26-5.42-29.35-5.6-35.68-.17-5.94 6.5-10.48 9.43-12.18.96-.56 1.65-1.48 1.91-2.56.92-3.82 1.7-12.48-9.34-14.38-.55-.093-1.07-.296-1.54-.595-.46-.3-.87-.69-1.18-1.149s-.53-.974-.64-1.518a4.35 4.35 0 0 1 .01-1.648c.93-4.57.64-11.3-8.05-13.78-8.83-2.52-14.38 2.79-17.21 6.87-1.14 1.65-3.28 2.18-5.11 1.36-1.04-.47-2.3-.49-3.65.65-1.82 1.54-4.6 1.07-5.94-.9-2.57-3.79-7.25-7.57-15.17-5.01-14.05 4.54-13.38 20.74-8.23 29.54s20.1 3.01 27.18-2.82c5.38-4.44 13.57-1.78 17.19-.26a4.19 4.19 0 0 1 1.47 1.066c.4.46.69 1.005.86 1.594z" fill="url(#M)"/><path d="M1512.98 1094.16l8.13-.38.59-.07 24.2-112.85a.89.89 0 0 0-.11-.619.85.85 0 0 0-.52-.361c-.45-.1-.88.19-.98.63l-23.95 111.68c-3.6.32-22.84 1.59-32.99-5.6l20.97-98.05-4.38-8.25c-.21-.4-.71-.56-1.11-.34-.4.21-.56.71-.34 1.11l4.1 7.72-21.06 98.5.42.32c7.32 5.51 19.14 6.56 27.03 6.56z" fill="#7a7c4c"/><path d="M787.35 1438.23c-.56 0-1.12-.12-1.66-.38-2.14-1-3.13-3.71-2.21-6.05l88.45-224.42c.92-2.33 3.4-3.41 5.54-2.41s3.13 3.71 2.21 6.05l-88.45 224.42c-.7 1.74-2.25 2.79-3.88 2.79z" class="F"/><path d="M1374.79 1191.53h128.11v-13.22h-128.11c2.74 0 2.74 13.22 0 13.22z" fill="url(#N)"/><path d="M1501.9 1191.53c.55 0 1-.45 1-1v-11.22c0-.55-.45-1-1-1h-130.01c-.55 0-1-.45-1-1v-.99c0-.55.45-1 1-1h138.35c1.47 0 2.87.58 3.91 1.62s1.62 2.44 1.62 3.91v8.45c0 2.88-2.34 5.22-5.22 5.22h-138.66c-.55 0-1-.45-1-1v-.99c0-.55.45-1 1-1h130.01z" fill="#e1473d"/><g class="F"><path d="M886.99 1438.23c-1.63 0-3.19-1.04-3.88-2.79l-88.45-224.42c-.92-2.34.07-5.04 2.21-6.05 2.14-1 4.62.07 5.54 2.41l88.45 224.42c.92 2.34-.07 5.04-2.21 6.05-.54.26-1.11.38-1.66.38zm500.63 0c-.56 0-1.12-.12-1.66-.38-2.14-1-3.13-3.71-2.21-6.05l88.45-224.42c.92-2.33 3.4-3.41 5.54-2.41s3.13 3.71 2.21 6.05l-88.45 224.42c-.69 1.74-2.24 2.79-3.88 2.79z"/><path d="M1487.26 1438.23c-1.63 0-3.19-1.04-3.88-2.79l-88.45-224.42c-.92-2.34.07-5.04 2.21-6.05 2.14-1 4.62.07 5.54 2.41l88.45 224.42c.92 2.34-.07 5.04-2.21 6.05-.53.26-1.1.38-1.66.38z"/><path d="M1521.46 1200.44c.43-1.48-.16-3-1.6-4.16s-3.59-1.83-5.86-1.83H746.4c-2.98 0-5.75 1.01-7.36 2.67-1.61 1.67-1.82 3.76-.57 5.55l8.32 11.94c1.9 2.73 6.03 4.49 10.57 4.49h751.37c4.22 0 7.86-1.99 8.66-4.74l4.07-13.92z"/></g><path d="M141.602 1102.27c28.38-11.75 41.857-44.29 30.101-72.67s-44.292-41.856-72.673-30.1-41.857 44.29-30.101 72.67 44.292 41.86 72.673 30.1z" class="E"/><path d="M153.63 1084.21c17.773-17.77 17.773-46.58 0-64.36-17.772-17.77-46.587-17.77-64.36 0-17.773 17.78-17.773 46.59 0 64.36 17.773 17.78 46.588 17.78 64.36 0z" fill="#fff" class="I"/><g class="E"><path d="M116.99 1085.87v-4.95c-5.16-.21-10.27-1.42-13.89-3.01-1.29-.57-1.95-2.02-1.58-3.38l1.26-4.61c.46-1.69 2.3-2.57 3.92-1.89 3.6 1.51 8.04 2.7 12.83 2.7 4.97 0 8.68-1.69 8.68-5.14 0-3.12-2.86-4.97-9.77-6.82-9.86-2.7-16.94-6.99-16.94-15.67 0-7.84 5.73-13.82 15.67-15.42v-4.95c0-.76.303-1.5.843-2.04s1.272-.85 2.037-.85h2.91c1.59 0 2.88 1.29 2.88 2.89v4.45c4.78.19 8.25 1.01 11.01 1.98.681.25 1.244.74 1.576 1.38a2.88 2.88 0 0 1 .214 2.09l-1.16 4.27c-.45 1.64-2.2 2.55-3.8 1.94-2.54-.96-6.13-1.96-10.8-1.96-5.9 0-7.58 2.44-7.58 4.63 0 2.7 3.54 4.55 11.21 6.91 10.95 3.29 15.5 7.84 15.5 16.01 0 7.5-5.56 14.24-16.35 15.93v5.54c0 .76-.303 1.5-.843 2.04s-1.272.85-2.037.85h-2.91c-1.59-.03-2.88-1.32-2.88-2.92zm257.215-85.44c8.567-52.784-27.277-102.521-80.059-111.088s-102.516 27.283-111.083 80.071 27.276 102.527 80.059 111.087c52.782 8.57 102.516-27.28 111.083-80.07z"/></g><path d="M280.65 1066.18c43.757 0 79.23-35.47 79.23-79.23s-35.473-79.23-79.23-79.23-79.23 35.472-79.23 79.23 35.472 79.23 79.23 79.23z" fill="#fff" class="I"/><g class="E"><path d="M272.88 1045.85v-8.62c-8.99-.36-17.87-2.48-24.19-5.24-2.25-.99-3.4-3.52-2.76-5.89l2.19-8.03c.8-2.95 4.01-4.47 6.82-3.29 6.26 2.62 13.99 4.7 22.33 4.7 8.65 0 15.11-2.93 15.11-8.95 0-5.43-4.99-8.65-17.02-11.88-17.16-4.69-29.48-12.18-29.48-27.28 0-13.64 9.98-24.06 27.28-26.84v-8.62c0-2.77 2.25-5.02 5.02-5.02h5.06c2.77 0 5.02 2.25 5.02 5.02v7.74c8.31.33 14.37 1.75 19.17 3.44 2.46.86 3.81 3.52 3.12 6.03l-2.01 7.43c-.78 2.86-3.84 4.43-6.61 3.38-4.42-1.67-10.67-3.41-18.8-3.41-10.27 0-13.2 4.25-13.2 8.07 0 4.69 6.16 7.92 19.51 12.03 19.07 5.72 26.99 13.64 26.99 27.87 0 13.06-9.68 24.79-28.46 27.72v9.65c0 2.77-2.25 5.02-5.02 5.02h-5.06a5.06 5.06 0 0 1-3.544-1.48c-.939-.94-1.466-2.22-1.466-3.55zm142.943 225.76c38.908-38.91 38.908-101.99 0-140.89-38.907-38.91-101.989-38.91-140.897 0-38.907 38.9-38.907 101.98 0 140.89s101.99 38.91 140.897 0z"/></g><path d="M426.783 1222.09c10.346-43.82-16.787-87.72-60.602-98.07s-87.723 16.79-98.069 60.6c-10.346 43.82 16.787 87.72 60.602 98.07s87.723-16.79 98.069-60.6z" fill="#fff" class="I"/><g class="E"><path d="M339.49 1263.88v-8.87c-9.25-.37-18.39-2.55-24.89-5.4-2.32-1.02-3.5-3.62-2.84-6.06l2.25-8.26c.83-3.03 4.12-4.6 7.02-3.38 6.44 2.7 14.4 4.84 22.98 4.84 8.91 0 15.55-3.02 15.55-9.21 0-5.58-5.13-8.9-17.51-12.22-17.66-4.83-30.34-12.53-30.34-28.07 0-14.04 10.26-24.75 28.08-27.62v-8.87c0-1.37.545-2.69 1.514-3.66s2.285-1.51 3.656-1.51h5.21c1.371 0 2.686.54 3.656 1.51a5.18 5.18 0 0 1 1.514 3.66v7.96c8.56.34 14.78 1.81 19.73 3.54 2.53.89 3.92 3.62 3.21 6.21l-2.07 7.64c-.187.7-.517 1.34-.97 1.9s-1.017 1.02-1.658 1.35a5.12 5.12 0 0 1-2.061.56 5.07 5.07 0 0 1-2.111-.33c-4.55-1.72-10.98-3.51-19.35-3.51-10.57 0-13.58 4.38-13.58 8.3 0 4.83 6.34 8.15 20.07 12.38 19.62 5.89 27.77 14.04 27.77 28.68 0 13.43-9.96 25.51-29.28 28.53v9.93c0 1.37-.545 2.69-1.514 3.66s-2.285 1.51-3.656 1.51h-5.21c-2.86-.03-5.17-2.34-5.17-5.19zm205.791-186.72c6.459-39.79-20.567-77.292-60.363-83.751s-77.294 20.571-83.753 60.361c-6.459 39.8 20.567 77.3 60.364 83.76 39.796 6.45 77.294-20.57 83.752-60.37z"/></g><path d="M482.053 1126.25c32.741-4.03 56.014-33.84 51.983-66.58s-33.84-56.01-66.581-51.98-56.014 33.84-51.983 66.58 33.841 56.01 66.581 51.98z" fill="#fff" class="I"/><path d="M468.88 1111.4v-6.5c-6.77-.27-13.47-1.87-18.23-3.95-1.7-.74-2.57-2.65-2.08-4.44l1.65-6.05c.61-2.22 3.02-3.37 5.14-2.48 4.72 1.98 10.55 3.54 16.84 3.54 6.52 0 11.39-2.21 11.39-6.75 0-4.09-3.76-6.52-12.83-8.96-12.94-3.54-22.23-9.18-22.23-20.57 0-10.29 7.52-18.14 20.57-20.24v-6.5c0-2.09 1.7-3.79 3.79-3.79h3.82c2.09 0 3.79 1.7 3.79 3.79v5.83c6.27.25 10.83 1.32 14.45 2.6 1.86.65 2.87 2.65 2.35 4.55l-1.52 5.6c-.59 2.16-2.89 3.34-4.98 2.55-3.33-1.26-8.05-2.57-14.17-2.57-7.74 0-9.95 3.21-9.95 6.08 0 3.54 4.64 5.97 14.71 9.07 14.38 4.31 20.35 10.28 20.35 21.01 0 9.84-7.3 18.69-21.45 20.9v7.27c0 2.09-1.7 3.79-3.79 3.79h-3.82c-2.11 0-3.8-1.69-3.8-3.78z" class="E"/><path d="M819.5 202.97l570.51-9.76c8.21-.14 14.94 6.47 14.94 14.68v37.95c0 3.893-1.55 7.627-4.3 10.38a14.68 14.68 0 0 1-10.38 4.3H819.73a14.68 14.68 0 0 1-14.68-14.68v-28.19a14.67 14.67 0 0 1 14.45-14.68z" class="K"/><path d="M922.82 232.2c0 8.26 6.77 14.92 15.03 14.78l330.58-5.74c9.48-.16 16.35-9.09 14.1-18.3l-1.5-6.13c-1.67-6.8-7.88-11.5-14.89-11.25l-329.08 11.87c-3.823.142-7.442 1.76-10.097 4.514s-4.141 6.43-4.143 10.256z" class="M"/><path d="M848.99 234.25L798.17 286c-.503.514-.895 1.126-1.151 1.798s-.369 1.39-.335 2.108.218 1.421.537 2.066a5.23 5.23 0 0 0 1.319 1.678l.38.32c.49.411 1.056.721 1.666.912s1.251.26 1.888.202a4.83 4.83 0 0 0 1.821-.538c.566-.297 1.067-.704 1.475-1.196l46.54-56.13-3.32-2.97z" fill="#fe7062"/><path opacity=".28" d="M901.2 192.81c7.86 16.47.64 36.3-16.13 44.31-16.77 8-36.73 1.14-44.59-15.32-7.86-16.47-.64-36.3 16.13-44.31s36.73-1.15 44.59 15.32z" fill="#dae3fe"/><path d="M855.01 174.12c-18.66 8.91-26.7 30.98-17.95 49.3 8.74 18.32 30.96 25.96 49.62 17.05s26.7-30.98 17.95-49.3-30.97-25.96-49.62-17.05zm29.34 61.48c-15.92 7.6-34.87 1.08-42.33-14.55s-.6-34.46 15.32-42.06 34.87-1.08 42.33 14.55c7.45 15.63.59 34.46-15.32 42.06z" fill="#fe7062"/></g><defs><linearGradient id="A" x1="403.518" y1="508.463" x2="772.011" y2="716.62" xlink:href="#P"><stop stop-color="#fec262"/><stop offset="1" stop-color="#ff928e"/></linearGradient><linearGradient id="B" x1="1167.35" y1="710.113" x2="1118.53" y2="887.953" xlink:href="#P"><stop stop-color="#4042e2"/><stop offset="1" stop-color="#4f52ff"/></linearGradient><linearGradient id="C" x1="1165.54" y1="709.617" x2="1116.72" y2="887.458" xlink:href="#P"><stop stop-color="#4042e2"/><stop offset="1" stop-color="#4f52ff"/></linearGradient><linearGradient id="D" x1="1161" y1="708.371" x2="1112.18" y2="886.213" xlink:href="#P"><stop stop-color="#4042e2"/><stop offset="1" stop-color="#4f52ff"/></linearGradient><linearGradient id="E" x1="1159.79" y1="708.038" x2="1110.97" y2="885.881" xlink:href="#P"><stop stop-color="#4042e2"/><stop offset="1" stop-color="#4f52ff"/></linearGradient><linearGradient id="F" x1="1214.94" y1="-1804.74" x2="1214.94" y2="512.072" xlink:href="#P"><stop stop-color="#ff928e"/><stop offset="1" stop-color="#feb3b1"/></linearGradient><linearGradient id="G" x1="1550.81" y1="-2324.88" x2="1307.35" y2="-884.069" xlink:href="#P"><stop stop-color="#ff928e"/><stop offset="1" stop-color="#feb3b1"/></linearGradient><linearGradient id="H" x1="1315.35" y1="252.379" x2="1296.6" y2="384.574" xlink:href="#P"><stop stop-color="#ff928e"/><stop offset="1" stop-color="#feb3b1"/></linearGradient><linearGradient id="I" x1="894.716" y1="1391.73" x2="911.187" y2="1391.89" xlink:href="#P"><stop stop-color="#ff928e"/><stop offset="1" stop-color="#feb3b1"/></linearGradient><linearGradient id="J" x1="907.392" y1="803.063" x2="976.139" y2="858.429" xlink:href="#P"><stop stop-color="#020039"/><stop offset="1" stop-color="#090056"/></linearGradient><linearGradient id="K" x1="752.14" y1="969.304" x2="815.255" y2="1031.67" xlink:href="#P"><stop stop-color="#020039"/><stop offset="1" stop-color="#090056"/></linearGradient><linearGradient id="L" x1="1296.1" y1="1251" x2="1311.1" y2="1521.01" xlink:href="#P"><stop stop-color="#fe7062"/><stop offset="1" stop-color="#ff928e"/></linearGradient><linearGradient id="M" x1="1472.15" y1="874.708" x2="1392.26" y2="874.708" xlink:href="#P"><stop stop-color="#e1473d"/><stop offset="1" stop-color="#e9605a"/></linearGradient><linearGradient id="N" x1="1421.91" y1="1173.94" x2="1533.78" y2="1246.46" xlink:href="#P"><stop stop-color="#ff928e"/><stop offset="1" stop-color="#feb3b1"/></linearGradient><clipPath id="O"><path fill="#fff" d="M0 0h2073v1459H0z"/></clipPath><linearGradient id="P" gradientUnits="userSpaceOnUse"/></defs></svg>